<?xml version="1.0" encoding="utf-8" standalone="no"?>
<!DOCTYPE svg PUBLIC "-//W3C//DTD SVG 1.1//EN"
  "http://www.w3.org/Graphics/SVG/1.1/DTD/svg11.dtd">
<svg xmlns:xlink="http://www.w3.org/1999/xlink" width="614.789062pt" height="394.217187pt" viewBox="0 0 614.789062 394.217187" xmlns="http://www.w3.org/2000/svg" version="1.1">
 <metadata>
  <rdf:RDF xmlns:dc="http://purl.org/dc/elements/1.1/" xmlns:cc="http://creativecommons.org/ns#" xmlns:rdf="http://www.w3.org/1999/02/22-rdf-syntax-ns#">
   <cc:Work>
    <dc:type rdf:resource="http://purl.org/dc/dcmitype/StillImage"/>
    <dc:date>2025-10-31T08:50:50.034096</dc:date>
    <dc:format>image/svg+xml</dc:format>
    <dc:creator>
     <cc:Agent>
      <dc:title>Matplotlib v3.10.7, https://matplotlib.org/</dc:title>
     </cc:Agent>
    </dc:creator>
   </cc:Work>
  </rdf:RDF>
 </metadata>
 <defs>
  <style type="text/css">*{stroke-linejoin: round; stroke-linecap: butt}</style>
 </defs>
 <g id="figure_1">
  <g id="patch_1">
   <path d="M 0 394.217187 
L 614.789062 394.217187 
L 614.789062 0 
L 0 0 
z
" style="fill: #ffffff"/>
  </g>
  <g id="axes_1">
   <g id="patch_2">
    <path d="M 49.589063 357.4875 
L 607.589062 357.4875 
L 607.589062 24.8475 
L 49.589063 24.8475 
z
" style="fill: #ffffff"/>
   </g>
   <g id="matplotlib.axis_1">
    <g id="xtick_1">
     <g id="line2d_1">
      <path d="M 83.785806 357.4875 
L 83.785806 24.8475 
" clip-path="url(#p5d53b3d690)" style="fill: none; stroke: #cccccc; stroke-width: 0.8; stroke-linecap: round"/>
     </g>
     <g id="text_1">
      <!-- 20 -->
      <g style="fill: #262626" transform="translate(78.224869 371.645312) scale(0.1 -0.1)">
       <defs>
        <path id="ArialMT-32" d="M 3222 541 
L 3222 0 
L 194 0 
Q 188 203 259 391 
Q 375 700 629 1000 
Q 884 1300 1366 1694 
Q 2113 2306 2375 2664 
Q 2638 3022 2638 3341 
Q 2638 3675 2398 3904 
Q 2159 4134 1775 4134 
Q 1369 4134 1125 3890 
Q 881 3647 878 3216 
L 300 3275 
Q 359 3922 746 4261 
Q 1134 4600 1788 4600 
Q 2447 4600 2831 4234 
Q 3216 3869 3216 3328 
Q 3216 3053 3103 2787 
Q 2991 2522 2730 2228 
Q 2469 1934 1863 1422 
Q 1356 997 1212 845 
Q 1069 694 975 541 
L 3222 541 
z
" transform="scale(0.015625)"/>
        <path id="ArialMT-30" d="M 266 2259 
Q 266 3072 433 3567 
Q 600 4063 929 4331 
Q 1259 4600 1759 4600 
Q 2128 4600 2406 4451 
Q 2684 4303 2865 4023 
Q 3047 3744 3150 3342 
Q 3253 2941 3253 2259 
Q 3253 1453 3087 958 
Q 2922 463 2592 192 
Q 2263 -78 1759 -78 
Q 1097 -78 719 397 
Q 266 969 266 2259 
z
M 844 2259 
Q 844 1131 1108 757 
Q 1372 384 1759 384 
Q 2147 384 2411 759 
Q 2675 1134 2675 2259 
Q 2675 3391 2411 3762 
Q 2147 4134 1753 4134 
Q 1366 4134 1134 3806 
Q 844 3388 844 2259 
z
" transform="scale(0.015625)"/>
       </defs>
       <use xlink:href="#ArialMT-32"/>
       <use xlink:href="#ArialMT-30" transform="translate(55.615234 0)"/>
      </g>
     </g>
    </g>
    <g id="xtick_2">
     <g id="line2d_2">
      <path d="M 184.735603 357.4875 
L 184.735603 24.8475 
" clip-path="url(#p5d53b3d690)" style="fill: none; stroke: #cccccc; stroke-width: 0.8; stroke-linecap: round"/>
     </g>
     <g id="text_2">
      <!-- 40 -->
      <g style="fill: #262626" transform="translate(179.174665 371.645312) scale(0.1 -0.1)">
       <defs>
        <path id="ArialMT-34" d="M 2069 0 
L 2069 1097 
L 81 1097 
L 81 1613 
L 2172 4581 
L 2631 4581 
L 2631 1613 
L 3250 1613 
L 3250 1097 
L 2631 1097 
L 2631 0 
L 2069 0 
z
M 2069 1613 
L 2069 3678 
L 634 1613 
L 2069 1613 
z
" transform="scale(0.015625)"/>
       </defs>
       <use xlink:href="#ArialMT-34"/>
       <use xlink:href="#ArialMT-30" transform="translate(55.615234 0)"/>
      </g>
     </g>
    </g>
    <g id="xtick_3">
     <g id="line2d_3">
      <path d="M 285.685399 357.4875 
L 285.685399 24.8475 
" clip-path="url(#p5d53b3d690)" style="fill: none; stroke: #cccccc; stroke-width: 0.8; stroke-linecap: round"/>
     </g>
     <g id="text_3">
      <!-- 60 -->
      <g style="fill: #262626" transform="translate(280.124461 371.645312) scale(0.1 -0.1)">
       <defs>
        <path id="ArialMT-36" d="M 3184 3459 
L 2625 3416 
Q 2550 3747 2413 3897 
Q 2184 4138 1850 4138 
Q 1581 4138 1378 3988 
Q 1113 3794 959 3422 
Q 806 3050 800 2363 
Q 1003 2672 1297 2822 
Q 1591 2972 1913 2972 
Q 2475 2972 2870 2558 
Q 3266 2144 3266 1488 
Q 3266 1056 3080 686 
Q 2894 316 2569 119 
Q 2244 -78 1831 -78 
Q 1128 -78 684 439 
Q 241 956 241 2144 
Q 241 3472 731 4075 
Q 1159 4600 1884 4600 
Q 2425 4600 2770 4297 
Q 3116 3994 3184 3459 
z
M 888 1484 
Q 888 1194 1011 928 
Q 1134 663 1356 523 
Q 1578 384 1822 384 
Q 2178 384 2434 671 
Q 2691 959 2691 1453 
Q 2691 1928 2437 2201 
Q 2184 2475 1800 2475 
Q 1419 2475 1153 2201 
Q 888 1928 888 1484 
z
" transform="scale(0.015625)"/>
       </defs>
       <use xlink:href="#ArialMT-36"/>
       <use xlink:href="#ArialMT-30" transform="translate(55.615234 0)"/>
      </g>
     </g>
    </g>
    <g id="xtick_4">
     <g id="line2d_4">
      <path d="M 386.635195 357.4875 
L 386.635195 24.8475 
" clip-path="url(#p5d53b3d690)" style="fill: none; stroke: #cccccc; stroke-width: 0.8; stroke-linecap: round"/>
     </g>
     <g id="text_4">
      <!-- 80 -->
      <g style="fill: #262626" transform="translate(381.074258 371.645312) scale(0.1 -0.1)">
       <defs>
        <path id="ArialMT-38" d="M 1131 2484 
Q 781 2613 612 2850 
Q 444 3088 444 3419 
Q 444 3919 803 4259 
Q 1163 4600 1759 4600 
Q 2359 4600 2725 4251 
Q 3091 3903 3091 3403 
Q 3091 3084 2923 2848 
Q 2756 2613 2416 2484 
Q 2838 2347 3058 2040 
Q 3278 1734 3278 1309 
Q 3278 722 2862 322 
Q 2447 -78 1769 -78 
Q 1091 -78 675 323 
Q 259 725 259 1325 
Q 259 1772 486 2073 
Q 713 2375 1131 2484 
z
M 1019 3438 
Q 1019 3113 1228 2906 
Q 1438 2700 1772 2700 
Q 2097 2700 2305 2904 
Q 2513 3109 2513 3406 
Q 2513 3716 2298 3927 
Q 2084 4138 1766 4138 
Q 1444 4138 1231 3931 
Q 1019 3725 1019 3438 
z
M 838 1322 
Q 838 1081 952 856 
Q 1066 631 1291 507 
Q 1516 384 1775 384 
Q 2178 384 2440 643 
Q 2703 903 2703 1303 
Q 2703 1709 2433 1975 
Q 2163 2241 1756 2241 
Q 1359 2241 1098 1978 
Q 838 1716 838 1322 
z
" transform="scale(0.015625)"/>
       </defs>
       <use xlink:href="#ArialMT-38"/>
       <use xlink:href="#ArialMT-30" transform="translate(55.615234 0)"/>
      </g>
     </g>
    </g>
    <g id="xtick_5">
     <g id="line2d_5">
      <path d="M 487.584992 357.4875 
L 487.584992 24.8475 
" clip-path="url(#p5d53b3d690)" style="fill: none; stroke: #cccccc; stroke-width: 0.8; stroke-linecap: round"/>
     </g>
     <g id="text_5">
      <!-- 100 -->
      <g style="fill: #262626" transform="translate(479.243586 371.645312) scale(0.1 -0.1)">
       <defs>
        <path id="ArialMT-31" d="M 2384 0 
L 1822 0 
L 1822 3584 
Q 1619 3391 1289 3197 
Q 959 3003 697 2906 
L 697 3450 
Q 1169 3672 1522 3987 
Q 1875 4303 2022 4600 
L 2384 4600 
L 2384 0 
z
" transform="scale(0.015625)"/>
       </defs>
       <use xlink:href="#ArialMT-31"/>
       <use xlink:href="#ArialMT-30" transform="translate(55.615234 0)"/>
       <use xlink:href="#ArialMT-30" transform="translate(111.230469 0)"/>
      </g>
     </g>
    </g>
    <g id="xtick_6">
     <g id="line2d_6">
      <path d="M 588.534788 357.4875 
L 588.534788 24.8475 
" clip-path="url(#p5d53b3d690)" style="fill: none; stroke: #cccccc; stroke-width: 0.8; stroke-linecap: round"/>
     </g>
     <g id="text_6">
      <!-- 120 -->
      <g style="fill: #262626" transform="translate(580.193382 371.645312) scale(0.1 -0.1)">
       <use xlink:href="#ArialMT-31"/>
       <use xlink:href="#ArialMT-32" transform="translate(55.615234 0)"/>
       <use xlink:href="#ArialMT-30" transform="translate(111.230469 0)"/>
      </g>
     </g>
    </g>
    <g id="text_7">
     <!-- MonthlyCharges -->
     <g style="fill: #262626" transform="translate(292.185156 384.9125) scale(0.1 -0.1)">
      <defs>
       <path id="ArialMT-4d" d="M 475 0 
L 475 4581 
L 1388 4581 
L 2472 1338 
Q 2622 884 2691 659 
Q 2769 909 2934 1394 
L 4031 4581 
L 4847 4581 
L 4847 0 
L 4263 0 
L 4263 3834 
L 2931 0 
L 2384 0 
L 1059 3900 
L 1059 0 
L 475 0 
z
" transform="scale(0.015625)"/>
       <path id="ArialMT-6f" d="M 213 1659 
Q 213 2581 725 3025 
Q 1153 3394 1769 3394 
Q 2453 3394 2887 2945 
Q 3322 2497 3322 1706 
Q 3322 1066 3130 698 
Q 2938 331 2570 128 
Q 2203 -75 1769 -75 
Q 1072 -75 642 372 
Q 213 819 213 1659 
z
M 791 1659 
Q 791 1022 1069 705 
Q 1347 388 1769 388 
Q 2188 388 2466 706 
Q 2744 1025 2744 1678 
Q 2744 2294 2464 2611 
Q 2184 2928 1769 2928 
Q 1347 2928 1069 2612 
Q 791 2297 791 1659 
z
" transform="scale(0.015625)"/>
       <path id="ArialMT-6e" d="M 422 0 
L 422 3319 
L 928 3319 
L 928 2847 
Q 1294 3394 1984 3394 
Q 2284 3394 2536 3286 
Q 2788 3178 2913 3003 
Q 3038 2828 3088 2588 
Q 3119 2431 3119 2041 
L 3119 0 
L 2556 0 
L 2556 2019 
Q 2556 2363 2490 2533 
Q 2425 2703 2258 2804 
Q 2091 2906 1866 2906 
Q 1506 2906 1245 2678 
Q 984 2450 984 1813 
L 984 0 
L 422 0 
z
" transform="scale(0.015625)"/>
       <path id="ArialMT-74" d="M 1650 503 
L 1731 6 
Q 1494 -44 1306 -44 
Q 1000 -44 831 53 
Q 663 150 594 308 
Q 525 466 525 972 
L 525 2881 
L 113 2881 
L 113 3319 
L 525 3319 
L 525 4141 
L 1084 4478 
L 1084 3319 
L 1650 3319 
L 1650 2881 
L 1084 2881 
L 1084 941 
Q 1084 700 1114 631 
Q 1144 563 1211 522 
Q 1278 481 1403 481 
Q 1497 481 1650 503 
z
" transform="scale(0.015625)"/>
       <path id="ArialMT-68" d="M 422 0 
L 422 4581 
L 984 4581 
L 984 2938 
Q 1378 3394 1978 3394 
Q 2347 3394 2619 3248 
Q 2891 3103 3008 2847 
Q 3125 2591 3125 2103 
L 3125 0 
L 2563 0 
L 2563 2103 
Q 2563 2525 2380 2717 
Q 2197 2909 1863 2909 
Q 1613 2909 1392 2779 
Q 1172 2650 1078 2428 
Q 984 2206 984 1816 
L 984 0 
L 422 0 
z
" transform="scale(0.015625)"/>
       <path id="ArialMT-6c" d="M 409 0 
L 409 4581 
L 972 4581 
L 972 0 
L 409 0 
z
" transform="scale(0.015625)"/>
       <path id="ArialMT-79" d="M 397 -1278 
L 334 -750 
Q 519 -800 656 -800 
Q 844 -800 956 -737 
Q 1069 -675 1141 -563 
Q 1194 -478 1313 -144 
Q 1328 -97 1363 -6 
L 103 3319 
L 709 3319 
L 1400 1397 
Q 1534 1031 1641 628 
Q 1738 1016 1872 1384 
L 2581 3319 
L 3144 3319 
L 1881 -56 
Q 1678 -603 1566 -809 
Q 1416 -1088 1222 -1217 
Q 1028 -1347 759 -1347 
Q 597 -1347 397 -1278 
z
" transform="scale(0.015625)"/>
       <path id="ArialMT-43" d="M 3763 1606 
L 4369 1453 
Q 4178 706 3683 314 
Q 3188 -78 2472 -78 
Q 1731 -78 1267 223 
Q 803 525 561 1097 
Q 319 1669 319 2325 
Q 319 3041 592 3573 
Q 866 4106 1370 4382 
Q 1875 4659 2481 4659 
Q 3169 4659 3637 4309 
Q 4106 3959 4291 3325 
L 3694 3184 
Q 3534 3684 3231 3912 
Q 2928 4141 2469 4141 
Q 1941 4141 1586 3887 
Q 1231 3634 1087 3207 
Q 944 2781 944 2328 
Q 944 1744 1114 1308 
Q 1284 872 1643 656 
Q 2003 441 2422 441 
Q 2931 441 3284 734 
Q 3638 1028 3763 1606 
z
" transform="scale(0.015625)"/>
       <path id="ArialMT-61" d="M 2588 409 
Q 2275 144 1986 34 
Q 1697 -75 1366 -75 
Q 819 -75 525 192 
Q 231 459 231 875 
Q 231 1119 342 1320 
Q 453 1522 633 1644 
Q 813 1766 1038 1828 
Q 1203 1872 1538 1913 
Q 2219 1994 2541 2106 
Q 2544 2222 2544 2253 
Q 2544 2597 2384 2738 
Q 2169 2928 1744 2928 
Q 1347 2928 1158 2789 
Q 969 2650 878 2297 
L 328 2372 
Q 403 2725 575 2942 
Q 747 3159 1072 3276 
Q 1397 3394 1825 3394 
Q 2250 3394 2515 3294 
Q 2781 3194 2906 3042 
Q 3031 2891 3081 2659 
Q 3109 2516 3109 2141 
L 3109 1391 
Q 3109 606 3145 398 
Q 3181 191 3288 0 
L 2700 0 
Q 2613 175 2588 409 
z
M 2541 1666 
Q 2234 1541 1622 1453 
Q 1275 1403 1131 1340 
Q 988 1278 909 1158 
Q 831 1038 831 891 
Q 831 666 1001 516 
Q 1172 366 1500 366 
Q 1825 366 2078 508 
Q 2331 650 2450 897 
Q 2541 1088 2541 1459 
L 2541 1666 
z
" transform="scale(0.015625)"/>
       <path id="ArialMT-72" d="M 416 0 
L 416 3319 
L 922 3319 
L 922 2816 
Q 1116 3169 1280 3281 
Q 1444 3394 1641 3394 
Q 1925 3394 2219 3213 
L 2025 2691 
Q 1819 2813 1613 2813 
Q 1428 2813 1281 2702 
Q 1134 2591 1072 2394 
Q 978 2094 978 1738 
L 978 0 
L 416 0 
z
" transform="scale(0.015625)"/>
       <path id="ArialMT-67" d="M 319 -275 
L 866 -356 
Q 900 -609 1056 -725 
Q 1266 -881 1628 -881 
Q 2019 -881 2231 -725 
Q 2444 -569 2519 -288 
Q 2563 -116 2559 434 
Q 2191 0 1641 0 
Q 956 0 581 494 
Q 206 988 206 1678 
Q 206 2153 378 2554 
Q 550 2956 876 3175 
Q 1203 3394 1644 3394 
Q 2231 3394 2613 2919 
L 2613 3319 
L 3131 3319 
L 3131 450 
Q 3131 -325 2973 -648 
Q 2816 -972 2473 -1159 
Q 2131 -1347 1631 -1347 
Q 1038 -1347 672 -1080 
Q 306 -813 319 -275 
z
M 784 1719 
Q 784 1066 1043 766 
Q 1303 466 1694 466 
Q 2081 466 2343 764 
Q 2606 1063 2606 1700 
Q 2606 2309 2336 2618 
Q 2066 2928 1684 2928 
Q 1309 2928 1046 2623 
Q 784 2319 784 1719 
z
" transform="scale(0.015625)"/>
       <path id="ArialMT-65" d="M 2694 1069 
L 3275 997 
Q 3138 488 2766 206 
Q 2394 -75 1816 -75 
Q 1088 -75 661 373 
Q 234 822 234 1631 
Q 234 2469 665 2931 
Q 1097 3394 1784 3394 
Q 2450 3394 2872 2941 
Q 3294 2488 3294 1666 
Q 3294 1616 3291 1516 
L 816 1516 
Q 847 969 1125 678 
Q 1403 388 1819 388 
Q 2128 388 2347 550 
Q 2566 713 2694 1069 
z
M 847 1978 
L 2700 1978 
Q 2663 2397 2488 2606 
Q 2219 2931 1791 2931 
Q 1403 2931 1139 2672 
Q 875 2413 847 1978 
z
" transform="scale(0.015625)"/>
       <path id="ArialMT-73" d="M 197 991 
L 753 1078 
Q 800 744 1014 566 
Q 1228 388 1613 388 
Q 2000 388 2187 545 
Q 2375 703 2375 916 
Q 2375 1106 2209 1216 
Q 2094 1291 1634 1406 
Q 1016 1563 777 1677 
Q 538 1791 414 1992 
Q 291 2194 291 2438 
Q 291 2659 392 2848 
Q 494 3038 669 3163 
Q 800 3259 1026 3326 
Q 1253 3394 1513 3394 
Q 1903 3394 2198 3281 
Q 2494 3169 2634 2976 
Q 2775 2784 2828 2463 
L 2278 2388 
Q 2241 2644 2061 2787 
Q 1881 2931 1553 2931 
Q 1166 2931 1000 2803 
Q 834 2675 834 2503 
Q 834 2394 903 2306 
Q 972 2216 1119 2156 
Q 1203 2125 1616 2013 
Q 2213 1853 2448 1751 
Q 2684 1650 2818 1456 
Q 2953 1263 2953 975 
Q 2953 694 2789 445 
Q 2625 197 2315 61 
Q 2006 -75 1616 -75 
Q 969 -75 630 194 
Q 291 463 197 991 
z
" transform="scale(0.015625)"/>
      </defs>
      <use xlink:href="#ArialMT-4d"/>
      <use xlink:href="#ArialMT-6f" transform="translate(83.300781 0)"/>
      <use xlink:href="#ArialMT-6e" transform="translate(138.916016 0)"/>
      <use xlink:href="#ArialMT-74" transform="translate(194.53125 0)"/>
      <use xlink:href="#ArialMT-68" transform="translate(222.314453 0)"/>
      <use xlink:href="#ArialMT-6c" transform="translate(277.929688 0)"/>
      <use xlink:href="#ArialMT-79" transform="translate(300.146484 0)"/>
      <use xlink:href="#ArialMT-43" transform="translate(350.146484 0)"/>
      <use xlink:href="#ArialMT-68" transform="translate(422.363281 0)"/>
      <use xlink:href="#ArialMT-61" transform="translate(477.978516 0)"/>
      <use xlink:href="#ArialMT-72" transform="translate(533.59375 0)"/>
      <use xlink:href="#ArialMT-67" transform="translate(566.894531 0)"/>
      <use xlink:href="#ArialMT-65" transform="translate(622.509766 0)"/>
      <use xlink:href="#ArialMT-73" transform="translate(678.125 0)"/>
     </g>
    </g>
   </g>
   <g id="matplotlib.axis_2">
    <g id="ytick_1">
     <g id="line2d_7">
      <path d="M 49.589063 357.4875 
L 607.589062 357.4875 
" clip-path="url(#p5d53b3d690)" style="fill: none; stroke: #cccccc; stroke-width: 0.8; stroke-linecap: round"/>
     </g>
     <g id="text_8">
      <!-- 0 -->
      <g style="fill: #262626" transform="translate(37.028125 361.066406) scale(0.1 -0.1)">
       <use xlink:href="#ArialMT-30"/>
      </g>
     </g>
    </g>
    <g id="ytick_2">
     <g id="line2d_8">
      <path d="M 49.589063 299.41234 
L 607.589062 299.41234 
" clip-path="url(#p5d53b3d690)" style="fill: none; stroke: #cccccc; stroke-width: 0.8; stroke-linecap: round"/>
     </g>
     <g id="text_9">
      <!-- 200 -->
      <g style="fill: #262626" transform="translate(25.90625 302.991246) scale(0.1 -0.1)">
       <use xlink:href="#ArialMT-32"/>
       <use xlink:href="#ArialMT-30" transform="translate(55.615234 0)"/>
       <use xlink:href="#ArialMT-30" transform="translate(111.230469 0)"/>
      </g>
     </g>
    </g>
    <g id="ytick_3">
     <g id="line2d_9">
      <path d="M 49.589063 241.337179 
L 607.589062 241.337179 
" clip-path="url(#p5d53b3d690)" style="fill: none; stroke: #cccccc; stroke-width: 0.8; stroke-linecap: round"/>
     </g>
     <g id="text_10">
      <!-- 400 -->
      <g style="fill: #262626" transform="translate(25.90625 244.916085) scale(0.1 -0.1)">
       <use xlink:href="#ArialMT-34"/>
       <use xlink:href="#ArialMT-30" transform="translate(55.615234 0)"/>
       <use xlink:href="#ArialMT-30" transform="translate(111.230469 0)"/>
      </g>
     </g>
    </g>
    <g id="ytick_4">
     <g id="line2d_10">
      <path d="M 49.589063 183.262019 
L 607.589062 183.262019 
" clip-path="url(#p5d53b3d690)" style="fill: none; stroke: #cccccc; stroke-width: 0.8; stroke-linecap: round"/>
     </g>
     <g id="text_11">
      <!-- 600 -->
      <g style="fill: #262626" transform="translate(25.90625 186.840925) scale(0.1 -0.1)">
       <use xlink:href="#ArialMT-36"/>
       <use xlink:href="#ArialMT-30" transform="translate(55.615234 0)"/>
       <use xlink:href="#ArialMT-30" transform="translate(111.230469 0)"/>
      </g>
     </g>
    </g>
    <g id="ytick_5">
     <g id="line2d_11">
      <path d="M 49.589063 125.186858 
L 607.589062 125.186858 
" clip-path="url(#p5d53b3d690)" style="fill: none; stroke: #cccccc; stroke-width: 0.8; stroke-linecap: round"/>
     </g>
     <g id="text_12">
      <!-- 800 -->
      <g style="fill: #262626" transform="translate(25.90625 128.765765) scale(0.1 -0.1)">
       <use xlink:href="#ArialMT-38"/>
       <use xlink:href="#ArialMT-30" transform="translate(55.615234 0)"/>
       <use xlink:href="#ArialMT-30" transform="translate(111.230469 0)"/>
      </g>
     </g>
    </g>
    <g id="ytick_6">
     <g id="line2d_12">
      <path d="M 49.589063 67.111698 
L 607.589062 67.111698 
" clip-path="url(#p5d53b3d690)" style="fill: none; stroke: #cccccc; stroke-width: 0.8; stroke-linecap: round"/>
     </g>
     <g id="text_13">
      <!-- 1000 -->
      <g style="fill: #262626" transform="translate(20.345313 70.690604) scale(0.1 -0.1)">
       <use xlink:href="#ArialMT-31"/>
       <use xlink:href="#ArialMT-30" transform="translate(55.615234 0)"/>
       <use xlink:href="#ArialMT-30" transform="translate(111.230469 0)"/>
       <use xlink:href="#ArialMT-30" transform="translate(166.845703 0)"/>
      </g>
     </g>
    </g>
    <g id="text_14">
     <!-- Count -->
     <g style="fill: #262626" transform="translate(14.357813 204.508906) rotate(-90) scale(0.1 -0.1)">
      <defs>
       <path id="ArialMT-75" d="M 2597 0 
L 2597 488 
Q 2209 -75 1544 -75 
Q 1250 -75 995 37 
Q 741 150 617 320 
Q 494 491 444 738 
Q 409 903 409 1263 
L 409 3319 
L 972 3319 
L 972 1478 
Q 972 1038 1006 884 
Q 1059 663 1231 536 
Q 1403 409 1656 409 
Q 1909 409 2131 539 
Q 2353 669 2445 892 
Q 2538 1116 2538 1541 
L 2538 3319 
L 3100 3319 
L 3100 0 
L 2597 0 
z
" transform="scale(0.015625)"/>
      </defs>
      <use xlink:href="#ArialMT-43"/>
      <use xlink:href="#ArialMT-6f" transform="translate(72.216797 0)"/>
      <use xlink:href="#ArialMT-75" transform="translate(127.832031 0)"/>
      <use xlink:href="#ArialMT-6e" transform="translate(183.447266 0)"/>
      <use xlink:href="#ArialMT-74" transform="translate(239.0625 0)"/>
     </g>
    </g>
   </g>
   <g id="patch_3">
    <path d="M 74.952699 357.4875 
L 103.134517 357.4875 
L 103.134517 326.998041 
L 74.952699 326.998041 
z
" clip-path="url(#p5d53b3d690)" style="fill: #f97316; fill-opacity: 0.5; stroke: #ffffff; stroke-linejoin: miter"/>
   </g>
   <g id="patch_4">
    <path d="M 103.134517 357.4875 
L 131.316335 357.4875 
L 131.316335 343.839837 
L 103.134517 343.839837 
z
" clip-path="url(#p5d53b3d690)" style="fill: #f97316; fill-opacity: 0.5; stroke: #ffffff; stroke-linejoin: miter"/>
   </g>
   <g id="patch_5">
    <path d="M 131.316335 357.4875 
L 159.498153 357.4875 
L 159.498153 347.033971 
L 131.316335 347.033971 
z
" clip-path="url(#p5d53b3d690)" style="fill: #f97316; fill-opacity: 0.5; stroke: #ffffff; stroke-linejoin: miter"/>
   </g>
   <g id="patch_6">
    <path d="M 159.498153 357.4875 
L 187.679972 357.4875 
L 187.679972 347.614723 
L 159.498153 347.614723 
z
" clip-path="url(#p5d53b3d690)" style="fill: #f97316; fill-opacity: 0.5; stroke: #ffffff; stroke-linejoin: miter"/>
   </g>
   <g id="patch_7">
    <path d="M 187.679972 357.4875 
L 215.86179 357.4875 
L 215.86179 330.48255 
L 187.679972 330.48255 
z
" clip-path="url(#p5d53b3d690)" style="fill: #f97316; fill-opacity: 0.5; stroke: #ffffff; stroke-linejoin: miter"/>
   </g>
   <g id="patch_8">
    <path d="M 215.86179 357.4875 
L 244.043608 357.4875 
L 244.043608 332.224805 
L 215.86179 332.224805 
z
" clip-path="url(#p5d53b3d690)" style="fill: #f97316; fill-opacity: 0.5; stroke: #ffffff; stroke-linejoin: miter"/>
   </g>
   <g id="patch_9">
    <path d="M 244.043608 357.4875 
L 272.225426 357.4875 
L 272.225426 336.580442 
L 244.043608 336.580442 
z
" clip-path="url(#p5d53b3d690)" style="fill: #f97316; fill-opacity: 0.5; stroke: #ffffff; stroke-linejoin: miter"/>
   </g>
   <g id="patch_10">
    <path d="M 272.225426 357.4875 
L 300.407244 357.4875 
L 300.407244 347.614723 
L 272.225426 347.614723 
z
" clip-path="url(#p5d53b3d690)" style="fill: #f97316; fill-opacity: 0.5; stroke: #ffffff; stroke-linejoin: miter"/>
   </g>
   <g id="patch_11">
    <path d="M 300.407244 357.4875 
L 328.589062 357.4875 
L 328.589062 351.389608 
L 300.407244 351.389608 
z
" clip-path="url(#p5d53b3d690)" style="fill: #f97316; fill-opacity: 0.5; stroke: #ffffff; stroke-linejoin: miter"/>
   </g>
   <g id="patch_12">
    <path d="M 328.589062 357.4875 
L 356.770881 357.4875 
L 356.770881 304.348728 
L 328.589062 304.348728 
z
" clip-path="url(#p5d53b3d690)" style="fill: #f97316; fill-opacity: 0.5; stroke: #ffffff; stroke-linejoin: miter"/>
   </g>
   <g id="patch_13">
    <path d="M 356.770881 357.4875 
L 384.952699 357.4875 
L 384.952699 291.572193 
L 356.770881 291.572193 
z
" clip-path="url(#p5d53b3d690)" style="fill: #f97316; fill-opacity: 0.5; stroke: #ffffff; stroke-linejoin: miter"/>
   </g>
   <g id="patch_14">
    <path d="M 384.952699 357.4875 
L 413.134517 357.4875 
L 413.134517 298.831588 
L 384.952699 298.831588 
z
" clip-path="url(#p5d53b3d690)" style="fill: #f97316; fill-opacity: 0.5; stroke: #ffffff; stroke-linejoin: miter"/>
   </g>
   <g id="patch_15">
    <path d="M 413.134517 357.4875 
L 441.316335 357.4875 
L 441.316335 302.606473 
L 413.134517 302.606473 
z
" clip-path="url(#p5d53b3d690)" style="fill: #f97316; fill-opacity: 0.5; stroke: #ffffff; stroke-linejoin: miter"/>
   </g>
   <g id="patch_16">
    <path d="M 441.316335 357.4875 
L 469.498153 357.4875 
L 469.498153 304.639104 
L 441.316335 304.639104 
z
" clip-path="url(#p5d53b3d690)" style="fill: #f97316; fill-opacity: 0.5; stroke: #ffffff; stroke-linejoin: miter"/>
   </g>
   <g id="patch_17">
    <path d="M 469.498153 357.4875 
L 497.679972 357.4875 
L 497.679972 306.96211 
L 469.498153 306.96211 
z
" clip-path="url(#p5d53b3d690)" style="fill: #f97316; fill-opacity: 0.5; stroke: #ffffff; stroke-linejoin: miter"/>
   </g>
   <g id="patch_18">
    <path d="M 497.679972 357.4875 
L 525.86179 357.4875 
L 525.86179 319.44827 
L 497.679972 319.44827 
z
" clip-path="url(#p5d53b3d690)" style="fill: #f97316; fill-opacity: 0.5; stroke: #ffffff; stroke-linejoin: miter"/>
   </g>
   <g id="patch_19">
    <path d="M 525.86179 357.4875 
L 554.043608 357.4875 
L 554.043608 345.291716 
L 525.86179 345.291716 
z
" clip-path="url(#p5d53b3d690)" style="fill: #f97316; fill-opacity: 0.5; stroke: #ffffff; stroke-linejoin: miter"/>
   </g>
   <g id="patch_20">
    <path d="M 554.043608 357.4875 
L 582.225426 357.4875 
L 582.225426 354.583742 
L 554.043608 354.583742 
z
" clip-path="url(#p5d53b3d690)" style="fill: #f97316; fill-opacity: 0.5; stroke: #ffffff; stroke-linejoin: miter"/>
   </g>
   <g id="patch_21">
    <path d="M 74.952699 357.4875 
L 103.134517 357.4875 
L 103.134517 40.6875 
L 74.952699 40.6875 
z
" clip-path="url(#p5d53b3d690)" style="fill: #3b82f6; fill-opacity: 0.5; stroke: #ffffff; stroke-linejoin: miter"/>
   </g>
   <g id="patch_22">
    <path d="M 103.134517 357.4875 
L 131.316335 357.4875 
L 131.316335 248.88695 
L 103.134517 248.88695 
z
" clip-path="url(#p5d53b3d690)" style="fill: #3b82f6; fill-opacity: 0.5; stroke: #ffffff; stroke-linejoin: miter"/>
   </g>
   <g id="patch_23">
    <path d="M 131.316335 357.4875 
L 159.498153 357.4875 
L 159.498153 336.580442 
L 131.316335 336.580442 
z
" clip-path="url(#p5d53b3d690)" style="fill: #3b82f6; fill-opacity: 0.5; stroke: #ffffff; stroke-linejoin: miter"/>
   </g>
   <g id="patch_24">
    <path d="M 159.498153 357.4875 
L 187.679972 357.4875 
L 187.679972 327.869168 
L 159.498153 327.869168 
z
" clip-path="url(#p5d53b3d690)" style="fill: #3b82f6; fill-opacity: 0.5; stroke: #ffffff; stroke-linejoin: miter"/>
   </g>
   <g id="patch_25">
    <path d="M 187.679972 357.4875 
L 215.86179 357.4875 
L 215.86179 307.833238 
L 187.679972 307.833238 
z
" clip-path="url(#p5d53b3d690)" style="fill: #3b82f6; fill-opacity: 0.5; stroke: #ffffff; stroke-linejoin: miter"/>
   </g>
   <g id="patch_26">
    <path d="M 215.86179 357.4875 
L 244.043608 357.4875 
L 244.043608 290.120314 
L 215.86179 290.120314 
z
" clip-path="url(#p5d53b3d690)" style="fill: #3b82f6; fill-opacity: 0.5; stroke: #ffffff; stroke-linejoin: miter"/>
   </g>
   <g id="patch_27">
    <path d="M 244.043608 357.4875 
L 272.225426 357.4875 
L 272.225426 283.44167 
L 244.043608 283.44167 
z
" clip-path="url(#p5d53b3d690)" style="fill: #3b82f6; fill-opacity: 0.5; stroke: #ffffff; stroke-linejoin: miter"/>
   </g>
   <g id="patch_28">
    <path d="M 272.225426 357.4875 
L 300.407244 357.4875 
L 300.407244 290.991441 
L 272.225426 290.991441 
z
" clip-path="url(#p5d53b3d690)" style="fill: #3b82f6; fill-opacity: 0.5; stroke: #ffffff; stroke-linejoin: miter"/>
   </g>
   <g id="patch_29">
    <path d="M 300.407244 357.4875 
L 328.589062 357.4875 
L 328.589062 296.508582 
L 300.407244 296.508582 
z
" clip-path="url(#p5d53b3d690)" style="fill: #3b82f6; fill-opacity: 0.5; stroke: #ffffff; stroke-linejoin: miter"/>
   </g>
   <g id="patch_30">
    <path d="M 328.589062 357.4875 
L 356.770881 357.4875 
L 356.770881 269.503632 
L 328.589062 269.503632 
z
" clip-path="url(#p5d53b3d690)" style="fill: #3b82f6; fill-opacity: 0.5; stroke: #ffffff; stroke-linejoin: miter"/>
   </g>
   <g id="patch_31">
    <path d="M 356.770881 357.4875 
L 384.952699 357.4875 
L 384.952699 261.663485 
L 356.770881 261.663485 
z
" clip-path="url(#p5d53b3d690)" style="fill: #3b82f6; fill-opacity: 0.5; stroke: #ffffff; stroke-linejoin: miter"/>
   </g>
   <g id="patch_32">
    <path d="M 384.952699 357.4875 
L 413.134517 357.4875 
L 413.134517 252.661835 
L 384.952699 252.661835 
z
" clip-path="url(#p5d53b3d690)" style="fill: #3b82f6; fill-opacity: 0.5; stroke: #ffffff; stroke-linejoin: miter"/>
   </g>
   <g id="patch_33">
    <path d="M 413.134517 357.4875 
L 441.316335 357.4875 
L 441.316335 256.727097 
L 413.134517 256.727097 
z
" clip-path="url(#p5d53b3d690)" style="fill: #3b82f6; fill-opacity: 0.5; stroke: #ffffff; stroke-linejoin: miter"/>
   </g>
   <g id="patch_34">
    <path d="M 441.316335 357.4875 
L 469.498153 357.4875 
L 469.498153 275.020772 
L 441.316335 275.020772 
z
" clip-path="url(#p5d53b3d690)" style="fill: #3b82f6; fill-opacity: 0.5; stroke: #ffffff; stroke-linejoin: miter"/>
   </g>
   <g id="patch_35">
    <path d="M 469.498153 357.4875 
L 497.679972 357.4875 
L 497.679972 282.570543 
L 469.498153 282.570543 
z
" clip-path="url(#p5d53b3d690)" style="fill: #3b82f6; fill-opacity: 0.5; stroke: #ffffff; stroke-linejoin: miter"/>
   </g>
   <g id="patch_36">
    <path d="M 497.679972 357.4875 
L 525.86179 357.4875 
L 525.86179 283.732046 
L 497.679972 283.732046 
z
" clip-path="url(#p5d53b3d690)" style="fill: #3b82f6; fill-opacity: 0.5; stroke: #ffffff; stroke-linejoin: miter"/>
   </g>
   <g id="patch_37">
    <path d="M 525.86179 357.4875 
L 554.043608 357.4875 
L 554.043608 302.316098 
L 525.86179 302.316098 
z
" clip-path="url(#p5d53b3d690)" style="fill: #3b82f6; fill-opacity: 0.5; stroke: #ffffff; stroke-linejoin: miter"/>
   </g>
   <g id="patch_38">
    <path d="M 554.043608 357.4875 
L 582.225426 357.4875 
L 582.225426 328.44992 
L 554.043608 328.44992 
z
" clip-path="url(#p5d53b3d690)" style="fill: #3b82f6; fill-opacity: 0.5; stroke: #ffffff; stroke-linejoin: miter"/>
   </g>
   <g id="line2d_13">
    <path d="M 74.952699 342.951212 
L 80.050917 341.7209 
L 85.149136 340.826434 
L 90.247354 340.307449 
L 95.345572 340.168649 
L 100.443791 340.380839 
L 105.542009 340.886822 
L 110.640227 341.610682 
L 120.836664 343.377763 
L 131.033101 345.073086 
L 138.680428 346.038034 
L 143.778647 346.474372 
L 148.876865 346.72213 
L 153.975084 346.767387 
L 159.073302 346.599256 
L 164.17152 346.209882 
L 169.269739 345.596219 
L 174.367957 344.763083 
L 179.466175 343.726547 
L 187.113503 341.860122 
L 210.055486 335.823033 
L 215.153704 334.827548 
L 220.251922 334.082069 
L 225.350141 333.617193 
L 230.448359 333.445583 
L 235.546577 333.56275 
L 240.644796 333.948919 
L 245.743014 334.57112 
L 250.841232 335.384883 
L 258.48856 336.841529 
L 268.684997 338.855068 
L 273.783215 339.704617 
L 278.881433 340.32487 
L 283.979652 340.620052 
L 286.528761 340.617232 
L 289.07787 340.500411 
L 291.626979 340.260714 
L 294.176089 339.890754 
L 296.725198 339.384905 
L 299.274307 338.739552 
L 301.823416 337.953305 
L 304.372525 337.027159 
L 306.921634 335.964596 
L 312.019853 333.456655 
L 317.118071 330.506192 
L 322.21629 327.223528 
L 342.609163 313.540878 
L 347.707381 310.633228 
L 352.8056 308.113708 
L 357.903818 306.019477 
L 363.002036 304.357779 
L 368.100255 303.111508 
L 373.198473 302.246159 
L 378.296692 301.716767 
L 383.39491 301.473803 
L 388.493128 301.467422 
L 393.591347 301.64994 
L 401.238674 302.181233 
L 411.435111 303.158881 
L 426.729766 304.629281 
L 434.377094 305.17514 
L 444.57353 305.655401 
L 459.868185 306.247946 
L 464.966404 306.598728 
L 470.064622 307.121229 
L 475.16284 307.869879 
L 480.261059 308.890897 
L 485.359277 310.218643 
L 490.457496 311.872979 
L 495.555714 313.857633 
L 500.653932 316.15955 
L 505.752151 318.74919 
L 510.850369 321.581805 
L 518.497697 326.157392 
L 536.341461 337.122928 
L 541.439679 340.017046 
L 546.537898 342.701632 
L 551.636116 345.14096 
L 556.734334 347.313957 
L 561.832553 349.213507 
L 566.930771 350.844617 
L 572.028989 352.221852 
L 577.127208 353.366466 
L 582.225426 354.303637 
L 582.225426 354.303637 
" clip-path="url(#p5d53b3d690)" style="fill: none; stroke: #f97316; stroke-width: 1.5; stroke-linecap: round"/>
   </g>
   <g id="line2d_14">
    <path d="M 74.952699 217.591267 
L 77.501808 212.392272 
L 80.050917 208.044366 
L 82.600026 204.622528 
L 85.149136 202.182575 
L 87.698245 200.759476 
L 90.247354 200.366422 
L 92.796463 200.994674 
L 95.345572 202.614192 
L 97.894682 205.174992 
L 100.443791 208.609141 
L 102.9929 212.833299 
L 105.542009 217.75165 
L 108.091118 223.259103 
L 110.640227 229.244605 
L 115.738446 242.195254 
L 125.934883 269.008216 
L 131.033101 281.422756 
L 133.58221 287.146408 
L 136.131319 292.48838 
L 138.680428 297.418146 
L 141.229538 301.915494 
L 143.778647 305.969578 
L 146.327756 309.577827 
L 148.876865 312.744773 
L 151.425974 315.480845 
L 153.975084 317.80119 
L 156.524193 319.724549 
L 159.073302 321.272234 
L 161.622411 322.467221 
L 164.17152 323.333368 
L 166.720629 323.894777 
L 169.269739 324.175296 
L 171.818848 324.198146 
L 174.367957 323.985669 
L 176.917066 323.559182 
L 179.466175 322.938916 
L 182.015285 322.144026 
L 184.564394 321.192645 
L 187.113503 320.101975 
L 192.211721 317.567559 
L 197.30994 314.663811 
L 202.408158 311.505233 
L 222.801031 298.384892 
L 227.89925 295.436892 
L 232.997468 292.770649 
L 238.095687 290.439112 
L 243.193905 288.479612 
L 248.292123 286.911844 
L 253.390342 285.736214 
L 258.48856 284.932896 
L 263.586778 284.461996 
L 268.684997 284.265121 
L 276.332324 284.319246 
L 289.07787 284.620381 
L 294.176089 284.568901 
L 299.274307 284.3173 
L 304.372525 283.823536 
L 309.470744 283.068736 
L 314.568962 282.05751 
L 319.66718 280.815668 
L 324.765399 279.385675 
L 332.412726 277.005261 
L 350.256491 271.29928 
L 357.903818 269.130733 
L 365.551146 267.25502 
L 370.649364 266.192399 
L 375.747582 265.29306 
L 380.845801 264.565136 
L 385.944019 264.013494 
L 391.042237 263.638901 
L 396.140456 263.437595 
L 401.238674 263.401739 
L 408.886002 263.635037 
L 416.533329 264.181511 
L 424.180657 265.017109 
L 431.827984 266.132514 
L 439.475312 267.521927 
L 447.122639 269.163702 
L 457.319076 271.651859 
L 487.908386 279.634088 
L 495.555714 281.775223 
L 500.653932 283.362241 
L 505.752151 285.144902 
L 510.850369 287.179639 
L 515.948587 289.514231 
L 521.046806 292.182382 
L 526.145024 295.199917 
L 531.243242 298.56292 
L 536.341461 302.247808 
L 541.439679 306.213028 
L 549.087007 312.559201 
L 572.028989 332.104462 
L 577.127208 336.04593 
L 582.225426 339.690369 
L 582.225426 339.690369 
" clip-path="url(#p5d53b3d690)" style="fill: none; stroke: #3b82f6; stroke-width: 1.5; stroke-linecap: round"/>
   </g>
   <g id="patch_39">
    <path d="M 49.589063 357.4875 
L 49.589063 24.8475 
" style="fill: none; stroke: #cccccc; stroke-width: 0.8; stroke-linejoin: miter; stroke-linecap: square"/>
   </g>
   <g id="patch_40">
    <path d="M 607.589062 357.4875 
L 607.589062 24.8475 
" style="fill: none; stroke: #cccccc; stroke-width: 0.8; stroke-linejoin: miter; stroke-linecap: square"/>
   </g>
   <g id="patch_41">
    <path d="M 49.589063 357.4875 
L 607.589062 357.4875 
" style="fill: none; stroke: #cccccc; stroke-width: 0.8; stroke-linejoin: miter; stroke-linecap: square"/>
   </g>
   <g id="patch_42">
    <path d="M 49.589063 24.8475 
L 607.589062 24.8475 
" style="fill: none; stroke: #cccccc; stroke-width: 0.8; stroke-linejoin: miter; stroke-linecap: square"/>
   </g>
   <g id="text_15">
    <!-- Distribution of Monthly Charges by Churn Status -->
    <g style="fill: #262626" transform="translate(157.407813 18.8475) scale(0.16 -0.16)">
     <defs>
      <path id="ArialMT-44" d="M 494 0 
L 494 4581 
L 2072 4581 
Q 2606 4581 2888 4516 
Q 3281 4425 3559 4188 
Q 3922 3881 4101 3404 
Q 4281 2928 4281 2316 
Q 4281 1794 4159 1391 
Q 4038 988 3847 723 
Q 3656 459 3429 307 
Q 3203 156 2883 78 
Q 2563 0 2147 0 
L 494 0 
z
M 1100 541 
L 2078 541 
Q 2531 541 2789 625 
Q 3047 709 3200 863 
Q 3416 1078 3536 1442 
Q 3656 1806 3656 2325 
Q 3656 3044 3420 3430 
Q 3184 3816 2847 3947 
Q 2603 4041 2063 4041 
L 1100 4041 
L 1100 541 
z
" transform="scale(0.015625)"/>
      <path id="ArialMT-69" d="M 425 3934 
L 425 4581 
L 988 4581 
L 988 3934 
L 425 3934 
z
M 425 0 
L 425 3319 
L 988 3319 
L 988 0 
L 425 0 
z
" transform="scale(0.015625)"/>
      <path id="ArialMT-62" d="M 941 0 
L 419 0 
L 419 4581 
L 981 4581 
L 981 2947 
Q 1338 3394 1891 3394 
Q 2197 3394 2470 3270 
Q 2744 3147 2920 2923 
Q 3097 2700 3197 2384 
Q 3297 2069 3297 1709 
Q 3297 856 2875 390 
Q 2453 -75 1863 -75 
Q 1275 -75 941 416 
L 941 0 
z
M 934 1684 
Q 934 1088 1097 822 
Q 1363 388 1816 388 
Q 2184 388 2453 708 
Q 2722 1028 2722 1663 
Q 2722 2313 2464 2622 
Q 2206 2931 1841 2931 
Q 1472 2931 1203 2611 
Q 934 2291 934 1684 
z
" transform="scale(0.015625)"/>
      <path id="ArialMT-20" transform="scale(0.015625)"/>
      <path id="ArialMT-66" d="M 556 0 
L 556 2881 
L 59 2881 
L 59 3319 
L 556 3319 
L 556 3672 
Q 556 4006 616 4169 
Q 697 4388 901 4523 
Q 1106 4659 1475 4659 
Q 1713 4659 2000 4603 
L 1916 4113 
Q 1741 4144 1584 4144 
Q 1328 4144 1222 4034 
Q 1116 3925 1116 3625 
L 1116 3319 
L 1763 3319 
L 1763 2881 
L 1116 2881 
L 1116 0 
L 556 0 
z
" transform="scale(0.015625)"/>
      <path id="ArialMT-53" d="M 288 1472 
L 859 1522 
Q 900 1178 1048 958 
Q 1197 738 1509 602 
Q 1822 466 2213 466 
Q 2559 466 2825 569 
Q 3091 672 3220 851 
Q 3350 1031 3350 1244 
Q 3350 1459 3225 1620 
Q 3100 1781 2813 1891 
Q 2628 1963 1997 2114 
Q 1366 2266 1113 2400 
Q 784 2572 623 2826 
Q 463 3081 463 3397 
Q 463 3744 659 4045 
Q 856 4347 1234 4503 
Q 1613 4659 2075 4659 
Q 2584 4659 2973 4495 
Q 3363 4331 3572 4012 
Q 3781 3694 3797 3291 
L 3216 3247 
Q 3169 3681 2898 3903 
Q 2628 4125 2100 4125 
Q 1550 4125 1298 3923 
Q 1047 3722 1047 3438 
Q 1047 3191 1225 3031 
Q 1400 2872 2139 2705 
Q 2878 2538 3153 2413 
Q 3553 2228 3743 1945 
Q 3934 1663 3934 1294 
Q 3934 928 3725 604 
Q 3516 281 3123 101 
Q 2731 -78 2241 -78 
Q 1619 -78 1198 103 
Q 778 284 539 648 
Q 300 1013 288 1472 
z
" transform="scale(0.015625)"/>
     </defs>
     <use xlink:href="#ArialMT-44"/>
     <use xlink:href="#ArialMT-69" transform="translate(72.216797 0)"/>
     <use xlink:href="#ArialMT-73" transform="translate(94.433594 0)"/>
     <use xlink:href="#ArialMT-74" transform="translate(144.433594 0)"/>
     <use xlink:href="#ArialMT-72" transform="translate(172.216797 0)"/>
     <use xlink:href="#ArialMT-69" transform="translate(205.517578 0)"/>
     <use xlink:href="#ArialMT-62" transform="translate(227.734375 0)"/>
     <use xlink:href="#ArialMT-75" transform="translate(283.349609 0)"/>
     <use xlink:href="#ArialMT-74" transform="translate(338.964844 0)"/>
     <use xlink:href="#ArialMT-69" transform="translate(366.748047 0)"/>
     <use xlink:href="#ArialMT-6f" transform="translate(388.964844 0)"/>
     <use xlink:href="#ArialMT-6e" transform="translate(444.580078 0)"/>
     <use xlink:href="#ArialMT-20" transform="translate(500.195312 0)"/>
     <use xlink:href="#ArialMT-6f" transform="translate(527.978516 0)"/>
     <use xlink:href="#ArialMT-66" transform="translate(583.59375 0)"/>
     <use xlink:href="#ArialMT-20" transform="translate(611.376953 0)"/>
     <use xlink:href="#ArialMT-4d" transform="translate(639.160156 0)"/>
     <use xlink:href="#ArialMT-6f" transform="translate(722.460938 0)"/>
     <use xlink:href="#ArialMT-6e" transform="translate(778.076172 0)"/>
     <use xlink:href="#ArialMT-74" transform="translate(833.691406 0)"/>
     <use xlink:href="#ArialMT-68" transform="translate(861.474609 0)"/>
     <use xlink:href="#ArialMT-6c" transform="translate(917.089844 0)"/>
     <use xlink:href="#ArialMT-79" transform="translate(939.306641 0)"/>
     <use xlink:href="#ArialMT-20" transform="translate(989.306641 0)"/>
     <use xlink:href="#ArialMT-43" transform="translate(1017.089844 0)"/>
     <use xlink:href="#ArialMT-68" transform="translate(1089.306641 0)"/>
     <use xlink:href="#ArialMT-61" transform="translate(1144.921875 0)"/>
     <use xlink:href="#ArialMT-72" transform="translate(1200.537109 0)"/>
     <use xlink:href="#ArialMT-67" transform="translate(1233.837891 0)"/>
     <use xlink:href="#ArialMT-65" transform="translate(1289.453125 0)"/>
     <use xlink:href="#ArialMT-73" transform="translate(1345.068359 0)"/>
     <use xlink:href="#ArialMT-20" transform="translate(1395.068359 0)"/>
     <use xlink:href="#ArialMT-62" transform="translate(1422.851562 0)"/>
     <use xlink:href="#ArialMT-79" transform="translate(1478.466797 0)"/>
     <use xlink:href="#ArialMT-20" transform="translate(1528.466797 0)"/>
     <use xlink:href="#ArialMT-43" transform="translate(1556.25 0)"/>
     <use xlink:href="#ArialMT-68" transform="translate(1628.466797 0)"/>
     <use xlink:href="#ArialMT-75" transform="translate(1684.082031 0)"/>
     <use xlink:href="#ArialMT-72" transform="translate(1739.697266 0)"/>
     <use xlink:href="#ArialMT-6e" transform="translate(1772.998047 0)"/>
     <use xlink:href="#ArialMT-20" transform="translate(1828.613281 0)"/>
     <use xlink:href="#ArialMT-53" transform="translate(1856.396484 0)"/>
     <use xlink:href="#ArialMT-74" transform="translate(1923.095703 0)"/>
     <use xlink:href="#ArialMT-61" transform="translate(1950.878906 0)"/>
     <use xlink:href="#ArialMT-74" transform="translate(2006.494141 0)"/>
     <use xlink:href="#ArialMT-75" transform="translate(2034.277344 0)"/>
     <use xlink:href="#ArialMT-73" transform="translate(2089.892578 0)"/>
    </g>
   </g>
   <g id="legend_1">
    <g id="patch_43">
     <path d="M 530.232813 75.5225 
L 600.589063 75.5225 
Q 602.589063 75.5225 602.589063 73.5225 
L 602.589063 31.8475 
Q 602.589063 29.8475 600.589063 29.8475 
L 530.232813 29.8475 
Q 528.232813 29.8475 528.232813 31.8475 
L 528.232813 73.5225 
Q 528.232813 75.5225 530.232813 75.5225 
z
" style="fill: #ffffff; opacity: 0.8; stroke: #cccccc; stroke-linejoin: miter"/>
    </g>
    <g id="text_16">
     <!-- Churn Status -->
     <g style="fill: #262626" transform="translate(536.230469 41.005312) scale(0.1 -0.1)">
      <use xlink:href="#ArialMT-43"/>
      <use xlink:href="#ArialMT-68" transform="translate(72.216797 0)"/>
      <use xlink:href="#ArialMT-75" transform="translate(127.832031 0)"/>
      <use xlink:href="#ArialMT-72" transform="translate(183.447266 0)"/>
      <use xlink:href="#ArialMT-6e" transform="translate(216.748047 0)"/>
      <use xlink:href="#ArialMT-20" transform="translate(272.363281 0)"/>
      <use xlink:href="#ArialMT-53" transform="translate(300.146484 0)"/>
      <use xlink:href="#ArialMT-74" transform="translate(366.845703 0)"/>
      <use xlink:href="#ArialMT-61" transform="translate(394.628906 0)"/>
      <use xlink:href="#ArialMT-74" transform="translate(450.244141 0)"/>
      <use xlink:href="#ArialMT-75" transform="translate(478.027344 0)"/>
      <use xlink:href="#ArialMT-73" transform="translate(533.642578 0)"/>
     </g>
    </g>
    <g id="patch_44">
     <path d="M 532.232813 55.2725 
L 552.232813 55.2725 
L 552.232813 48.2725 
L 532.232813 48.2725 
z
" style="fill: #3b82f6; fill-opacity: 0.5; stroke: #ffffff; stroke-linejoin: miter"/>
    </g>
    <g id="text_17">
     <!-- Stayed -->
     <g style="fill: #262626" transform="translate(560.232813 55.2725) scale(0.1 -0.1)">
      <defs>
       <path id="ArialMT-64" d="M 2575 0 
L 2575 419 
Q 2259 -75 1647 -75 
Q 1250 -75 917 144 
Q 584 363 401 755 
Q 219 1147 219 1656 
Q 219 2153 384 2558 
Q 550 2963 881 3178 
Q 1213 3394 1622 3394 
Q 1922 3394 2156 3267 
Q 2391 3141 2538 2938 
L 2538 4581 
L 3097 4581 
L 3097 0 
L 2575 0 
z
M 797 1656 
Q 797 1019 1065 703 
Q 1334 388 1700 388 
Q 2069 388 2326 689 
Q 2584 991 2584 1609 
Q 2584 2291 2321 2609 
Q 2059 2928 1675 2928 
Q 1300 2928 1048 2622 
Q 797 2316 797 1656 
z
" transform="scale(0.015625)"/>
      </defs>
      <use xlink:href="#ArialMT-53"/>
      <use xlink:href="#ArialMT-74" transform="translate(66.699219 0)"/>
      <use xlink:href="#ArialMT-61" transform="translate(94.482422 0)"/>
      <use xlink:href="#ArialMT-79" transform="translate(150.097656 0)"/>
      <use xlink:href="#ArialMT-65" transform="translate(200.097656 0)"/>
      <use xlink:href="#ArialMT-64" transform="translate(255.712891 0)"/>
     </g>
    </g>
    <g id="patch_45">
     <path d="M 532.232813 69.535 
L 552.232813 69.535 
L 552.232813 62.535 
L 532.232813 62.535 
z
" style="fill: #f97316; fill-opacity: 0.5; stroke: #ffffff; stroke-linejoin: miter"/>
    </g>
    <g id="text_18">
     <!-- Churned -->
     <g style="fill: #262626" transform="translate(560.232813 69.535) scale(0.1 -0.1)">
      <use xlink:href="#ArialMT-43"/>
      <use xlink:href="#ArialMT-68" transform="translate(72.216797 0)"/>
      <use xlink:href="#ArialMT-75" transform="translate(127.832031 0)"/>
      <use xlink:href="#ArialMT-72" transform="translate(183.447266 0)"/>
      <use xlink:href="#ArialMT-6e" transform="translate(216.748047 0)"/>
      <use xlink:href="#ArialMT-65" transform="translate(272.363281 0)"/>
      <use xlink:href="#ArialMT-64" transform="translate(327.978516 0)"/>
     </g>
    </g>
   </g>
  </g>
 </g>
 <defs>
  <clipPath id="p5d53b3d690">
   <rect x="49.589063" y="24.8475" width="558" height="332.64"/>
  </clipPath>
 </defs>
</svg>
