<?xml version="1.0" encoding="utf-8" standalone="no"?>
<!DOCTYPE svg PUBLIC "-//W3C//DTD SVG 1.1//EN"
  "http://www.w3.org/Graphics/SVG/1.1/DTD/svg11.dtd">
<svg xmlns:xlink="http://www.w3.org/1999/xlink" width="609.228125pt" height="394.217187pt" viewBox="0 0 609.228125 394.217187" xmlns="http://www.w3.org/2000/svg" version="1.1">
 <metadata>
  <rdf:RDF xmlns:dc="http://purl.org/dc/elements/1.1/" xmlns:cc="http://creativecommons.org/ns#" xmlns:rdf="http://www.w3.org/1999/02/22-rdf-syntax-ns#">
   <cc:Work>
    <dc:type rdf:resource="http://purl.org/dc/dcmitype/StillImage"/>
    <dc:date>2025-10-31T08:50:50.259137</dc:date>
    <dc:format>image/svg+xml</dc:format>
    <dc:creator>
     <cc:Agent>
      <dc:title>Matplotlib v3.10.7, https://matplotlib.org/</dc:title>
     </cc:Agent>
    </dc:creator>
   </cc:Work>
  </rdf:RDF>
 </metadata>
 <defs>
  <style type="text/css">*{stroke-linejoin: round; stroke-linecap: butt}</style>
 </defs>
 <g id="figure_1">
  <g id="patch_1">
   <path d="M 0 394.217187 
L 609.228125 394.217187 
L 609.228125 0 
L 0 0 
z
" style="fill: #ffffff"/>
  </g>
  <g id="axes_1">
   <g id="patch_2">
    <path d="M 44.028125 357.4875 
L 602.028125 357.4875 
L 602.028125 24.8475 
L 44.028125 24.8475 
z
" style="fill: #ffffff"/>
   </g>
   <g id="matplotlib.axis_1">
    <g id="xtick_1">
     <g id="line2d_1">
      <path d="M 68.291285 357.4875 
L 68.291285 24.8475 
" clip-path="url(#p79ebdaca90)" style="fill: none; stroke: #cccccc; stroke-width: 0.8; stroke-linecap: round"/>
     </g>
     <g id="text_1">
      <!-- 0 -->
      <g style="fill: #262626" transform="translate(65.510816 371.645312) scale(0.1 -0.1)">
       <defs>
        <path id="ArialMT-30" d="M 266 2259 
Q 266 3072 433 3567 
Q 600 4063 929 4331 
Q 1259 4600 1759 4600 
Q 2128 4600 2406 4451 
Q 2684 4303 2865 4023 
Q 3047 3744 3150 3342 
Q 3253 2941 3253 2259 
Q 3253 1453 3087 958 
Q 2922 463 2592 192 
Q 2263 -78 1759 -78 
Q 1097 -78 719 397 
Q 266 969 266 2259 
z
M 844 2259 
Q 844 1131 1108 757 
Q 1372 384 1759 384 
Q 2147 384 2411 759 
Q 2675 1134 2675 2259 
Q 2675 3391 2411 3762 
Q 2147 4134 1753 4134 
Q 1366 4134 1134 3806 
Q 844 3388 844 2259 
z
" transform="scale(0.015625)"/>
       </defs>
       <use xlink:href="#ArialMT-30"/>
      </g>
     </g>
    </g>
    <g id="xtick_2">
     <g id="line2d_2">
      <path d="M 185.363228 357.4875 
L 185.363228 24.8475 
" clip-path="url(#p79ebdaca90)" style="fill: none; stroke: #cccccc; stroke-width: 0.8; stroke-linecap: round"/>
     </g>
     <g id="text_2">
      <!-- 2000 -->
      <g style="fill: #262626" transform="translate(174.241353 371.645312) scale(0.1 -0.1)">
       <defs>
        <path id="ArialMT-32" d="M 3222 541 
L 3222 0 
L 194 0 
Q 188 203 259 391 
Q 375 700 629 1000 
Q 884 1300 1366 1694 
Q 2113 2306 2375 2664 
Q 2638 3022 2638 3341 
Q 2638 3675 2398 3904 
Q 2159 4134 1775 4134 
Q 1369 4134 1125 3890 
Q 881 3647 878 3216 
L 300 3275 
Q 359 3922 746 4261 
Q 1134 4600 1788 4600 
Q 2447 4600 2831 4234 
Q 3216 3869 3216 3328 
Q 3216 3053 3103 2787 
Q 2991 2522 2730 2228 
Q 2469 1934 1863 1422 
Q 1356 997 1212 845 
Q 1069 694 975 541 
L 3222 541 
z
" transform="scale(0.015625)"/>
       </defs>
       <use xlink:href="#ArialMT-32"/>
       <use xlink:href="#ArialMT-30" transform="translate(55.615234 0)"/>
       <use xlink:href="#ArialMT-30" transform="translate(111.230469 0)"/>
       <use xlink:href="#ArialMT-30" transform="translate(166.845703 0)"/>
      </g>
     </g>
    </g>
    <g id="xtick_3">
     <g id="line2d_3">
      <path d="M 302.43517 357.4875 
L 302.43517 24.8475 
" clip-path="url(#p79ebdaca90)" style="fill: none; stroke: #cccccc; stroke-width: 0.8; stroke-linecap: round"/>
     </g>
     <g id="text_3">
      <!-- 4000 -->
      <g style="fill: #262626" transform="translate(291.313295 371.645312) scale(0.1 -0.1)">
       <defs>
        <path id="ArialMT-34" d="M 2069 0 
L 2069 1097 
L 81 1097 
L 81 1613 
L 2172 4581 
L 2631 4581 
L 2631 1613 
L 3250 1613 
L 3250 1097 
L 2631 1097 
L 2631 0 
L 2069 0 
z
M 2069 1613 
L 2069 3678 
L 634 1613 
L 2069 1613 
z
" transform="scale(0.015625)"/>
       </defs>
       <use xlink:href="#ArialMT-34"/>
       <use xlink:href="#ArialMT-30" transform="translate(55.615234 0)"/>
       <use xlink:href="#ArialMT-30" transform="translate(111.230469 0)"/>
       <use xlink:href="#ArialMT-30" transform="translate(166.845703 0)"/>
      </g>
     </g>
    </g>
    <g id="xtick_4">
     <g id="line2d_4">
      <path d="M 419.507113 357.4875 
L 419.507113 24.8475 
" clip-path="url(#p79ebdaca90)" style="fill: none; stroke: #cccccc; stroke-width: 0.8; stroke-linecap: round"/>
     </g>
     <g id="text_4">
      <!-- 6000 -->
      <g style="fill: #262626" transform="translate(408.385238 371.645312) scale(0.1 -0.1)">
       <defs>
        <path id="ArialMT-36" d="M 3184 3459 
L 2625 3416 
Q 2550 3747 2413 3897 
Q 2184 4138 1850 4138 
Q 1581 4138 1378 3988 
Q 1113 3794 959 3422 
Q 806 3050 800 2363 
Q 1003 2672 1297 2822 
Q 1591 2972 1913 2972 
Q 2475 2972 2870 2558 
Q 3266 2144 3266 1488 
Q 3266 1056 3080 686 
Q 2894 316 2569 119 
Q 2244 -78 1831 -78 
Q 1128 -78 684 439 
Q 241 956 241 2144 
Q 241 3472 731 4075 
Q 1159 4600 1884 4600 
Q 2425 4600 2770 4297 
Q 3116 3994 3184 3459 
z
M 888 1484 
Q 888 1194 1011 928 
Q 1134 663 1356 523 
Q 1578 384 1822 384 
Q 2178 384 2434 671 
Q 2691 959 2691 1453 
Q 2691 1928 2437 2201 
Q 2184 2475 1800 2475 
Q 1419 2475 1153 2201 
Q 888 1928 888 1484 
z
" transform="scale(0.015625)"/>
       </defs>
       <use xlink:href="#ArialMT-36"/>
       <use xlink:href="#ArialMT-30" transform="translate(55.615234 0)"/>
       <use xlink:href="#ArialMT-30" transform="translate(111.230469 0)"/>
       <use xlink:href="#ArialMT-30" transform="translate(166.845703 0)"/>
      </g>
     </g>
    </g>
    <g id="xtick_5">
     <g id="line2d_5">
      <path d="M 536.579055 357.4875 
L 536.579055 24.8475 
" clip-path="url(#p79ebdaca90)" style="fill: none; stroke: #cccccc; stroke-width: 0.8; stroke-linecap: round"/>
     </g>
     <g id="text_5">
      <!-- 8000 -->
      <g style="fill: #262626" transform="translate(525.45718 371.645312) scale(0.1 -0.1)">
       <defs>
        <path id="ArialMT-38" d="M 1131 2484 
Q 781 2613 612 2850 
Q 444 3088 444 3419 
Q 444 3919 803 4259 
Q 1163 4600 1759 4600 
Q 2359 4600 2725 4251 
Q 3091 3903 3091 3403 
Q 3091 3084 2923 2848 
Q 2756 2613 2416 2484 
Q 2838 2347 3058 2040 
Q 3278 1734 3278 1309 
Q 3278 722 2862 322 
Q 2447 -78 1769 -78 
Q 1091 -78 675 323 
Q 259 725 259 1325 
Q 259 1772 486 2073 
Q 713 2375 1131 2484 
z
M 1019 3438 
Q 1019 3113 1228 2906 
Q 1438 2700 1772 2700 
Q 2097 2700 2305 2904 
Q 2513 3109 2513 3406 
Q 2513 3716 2298 3927 
Q 2084 4138 1766 4138 
Q 1444 4138 1231 3931 
Q 1019 3725 1019 3438 
z
M 838 1322 
Q 838 1081 952 856 
Q 1066 631 1291 507 
Q 1516 384 1775 384 
Q 2178 384 2440 643 
Q 2703 903 2703 1303 
Q 2703 1709 2433 1975 
Q 2163 2241 1756 2241 
Q 1359 2241 1098 1978 
Q 838 1716 838 1322 
z
" transform="scale(0.015625)"/>
       </defs>
       <use xlink:href="#ArialMT-38"/>
       <use xlink:href="#ArialMT-30" transform="translate(55.615234 0)"/>
       <use xlink:href="#ArialMT-30" transform="translate(111.230469 0)"/>
       <use xlink:href="#ArialMT-30" transform="translate(166.845703 0)"/>
      </g>
     </g>
    </g>
    <g id="text_6">
     <!-- TotalCharges -->
     <g style="fill: #262626" transform="translate(293.571875 384.9125) scale(0.1 -0.1)">
      <defs>
       <path id="ArialMT-54" d="M 1659 0 
L 1659 4041 
L 150 4041 
L 150 4581 
L 3781 4581 
L 3781 4041 
L 2266 4041 
L 2266 0 
L 1659 0 
z
" transform="scale(0.015625)"/>
       <path id="ArialMT-6f" d="M 213 1659 
Q 213 2581 725 3025 
Q 1153 3394 1769 3394 
Q 2453 3394 2887 2945 
Q 3322 2497 3322 1706 
Q 3322 1066 3130 698 
Q 2938 331 2570 128 
Q 2203 -75 1769 -75 
Q 1072 -75 642 372 
Q 213 819 213 1659 
z
M 791 1659 
Q 791 1022 1069 705 
Q 1347 388 1769 388 
Q 2188 388 2466 706 
Q 2744 1025 2744 1678 
Q 2744 2294 2464 2611 
Q 2184 2928 1769 2928 
Q 1347 2928 1069 2612 
Q 791 2297 791 1659 
z
" transform="scale(0.015625)"/>
       <path id="ArialMT-74" d="M 1650 503 
L 1731 6 
Q 1494 -44 1306 -44 
Q 1000 -44 831 53 
Q 663 150 594 308 
Q 525 466 525 972 
L 525 2881 
L 113 2881 
L 113 3319 
L 525 3319 
L 525 4141 
L 1084 4478 
L 1084 3319 
L 1650 3319 
L 1650 2881 
L 1084 2881 
L 1084 941 
Q 1084 700 1114 631 
Q 1144 563 1211 522 
Q 1278 481 1403 481 
Q 1497 481 1650 503 
z
" transform="scale(0.015625)"/>
       <path id="ArialMT-61" d="M 2588 409 
Q 2275 144 1986 34 
Q 1697 -75 1366 -75 
Q 819 -75 525 192 
Q 231 459 231 875 
Q 231 1119 342 1320 
Q 453 1522 633 1644 
Q 813 1766 1038 1828 
Q 1203 1872 1538 1913 
Q 2219 1994 2541 2106 
Q 2544 2222 2544 2253 
Q 2544 2597 2384 2738 
Q 2169 2928 1744 2928 
Q 1347 2928 1158 2789 
Q 969 2650 878 2297 
L 328 2372 
Q 403 2725 575 2942 
Q 747 3159 1072 3276 
Q 1397 3394 1825 3394 
Q 2250 3394 2515 3294 
Q 2781 3194 2906 3042 
Q 3031 2891 3081 2659 
Q 3109 2516 3109 2141 
L 3109 1391 
Q 3109 606 3145 398 
Q 3181 191 3288 0 
L 2700 0 
Q 2613 175 2588 409 
z
M 2541 1666 
Q 2234 1541 1622 1453 
Q 1275 1403 1131 1340 
Q 988 1278 909 1158 
Q 831 1038 831 891 
Q 831 666 1001 516 
Q 1172 366 1500 366 
Q 1825 366 2078 508 
Q 2331 650 2450 897 
Q 2541 1088 2541 1459 
L 2541 1666 
z
" transform="scale(0.015625)"/>
       <path id="ArialMT-6c" d="M 409 0 
L 409 4581 
L 972 4581 
L 972 0 
L 409 0 
z
" transform="scale(0.015625)"/>
       <path id="ArialMT-43" d="M 3763 1606 
L 4369 1453 
Q 4178 706 3683 314 
Q 3188 -78 2472 -78 
Q 1731 -78 1267 223 
Q 803 525 561 1097 
Q 319 1669 319 2325 
Q 319 3041 592 3573 
Q 866 4106 1370 4382 
Q 1875 4659 2481 4659 
Q 3169 4659 3637 4309 
Q 4106 3959 4291 3325 
L 3694 3184 
Q 3534 3684 3231 3912 
Q 2928 4141 2469 4141 
Q 1941 4141 1586 3887 
Q 1231 3634 1087 3207 
Q 944 2781 944 2328 
Q 944 1744 1114 1308 
Q 1284 872 1643 656 
Q 2003 441 2422 441 
Q 2931 441 3284 734 
Q 3638 1028 3763 1606 
z
" transform="scale(0.015625)"/>
       <path id="ArialMT-68" d="M 422 0 
L 422 4581 
L 984 4581 
L 984 2938 
Q 1378 3394 1978 3394 
Q 2347 3394 2619 3248 
Q 2891 3103 3008 2847 
Q 3125 2591 3125 2103 
L 3125 0 
L 2563 0 
L 2563 2103 
Q 2563 2525 2380 2717 
Q 2197 2909 1863 2909 
Q 1613 2909 1392 2779 
Q 1172 2650 1078 2428 
Q 984 2206 984 1816 
L 984 0 
L 422 0 
z
" transform="scale(0.015625)"/>
       <path id="ArialMT-72" d="M 416 0 
L 416 3319 
L 922 3319 
L 922 2816 
Q 1116 3169 1280 3281 
Q 1444 3394 1641 3394 
Q 1925 3394 2219 3213 
L 2025 2691 
Q 1819 2813 1613 2813 
Q 1428 2813 1281 2702 
Q 1134 2591 1072 2394 
Q 978 2094 978 1738 
L 978 0 
L 416 0 
z
" transform="scale(0.015625)"/>
       <path id="ArialMT-67" d="M 319 -275 
L 866 -356 
Q 900 -609 1056 -725 
Q 1266 -881 1628 -881 
Q 2019 -881 2231 -725 
Q 2444 -569 2519 -288 
Q 2563 -116 2559 434 
Q 2191 0 1641 0 
Q 956 0 581 494 
Q 206 988 206 1678 
Q 206 2153 378 2554 
Q 550 2956 876 3175 
Q 1203 3394 1644 3394 
Q 2231 3394 2613 2919 
L 2613 3319 
L 3131 3319 
L 3131 450 
Q 3131 -325 2973 -648 
Q 2816 -972 2473 -1159 
Q 2131 -1347 1631 -1347 
Q 1038 -1347 672 -1080 
Q 306 -813 319 -275 
z
M 784 1719 
Q 784 1066 1043 766 
Q 1303 466 1694 466 
Q 2081 466 2343 764 
Q 2606 1063 2606 1700 
Q 2606 2309 2336 2618 
Q 2066 2928 1684 2928 
Q 1309 2928 1046 2623 
Q 784 2319 784 1719 
z
" transform="scale(0.015625)"/>
       <path id="ArialMT-65" d="M 2694 1069 
L 3275 997 
Q 3138 488 2766 206 
Q 2394 -75 1816 -75 
Q 1088 -75 661 373 
Q 234 822 234 1631 
Q 234 2469 665 2931 
Q 1097 3394 1784 3394 
Q 2450 3394 2872 2941 
Q 3294 2488 3294 1666 
Q 3294 1616 3291 1516 
L 816 1516 
Q 847 969 1125 678 
Q 1403 388 1819 388 
Q 2128 388 2347 550 
Q 2566 713 2694 1069 
z
M 847 1978 
L 2700 1978 
Q 2663 2397 2488 2606 
Q 2219 2931 1791 2931 
Q 1403 2931 1139 2672 
Q 875 2413 847 1978 
z
" transform="scale(0.015625)"/>
       <path id="ArialMT-73" d="M 197 991 
L 753 1078 
Q 800 744 1014 566 
Q 1228 388 1613 388 
Q 2000 388 2187 545 
Q 2375 703 2375 916 
Q 2375 1106 2209 1216 
Q 2094 1291 1634 1406 
Q 1016 1563 777 1677 
Q 538 1791 414 1992 
Q 291 2194 291 2438 
Q 291 2659 392 2848 
Q 494 3038 669 3163 
Q 800 3259 1026 3326 
Q 1253 3394 1513 3394 
Q 1903 3394 2198 3281 
Q 2494 3169 2634 2976 
Q 2775 2784 2828 2463 
L 2278 2388 
Q 2241 2644 2061 2787 
Q 1881 2931 1553 2931 
Q 1166 2931 1000 2803 
Q 834 2675 834 2503 
Q 834 2394 903 2306 
Q 972 2216 1119 2156 
Q 1203 2125 1616 2013 
Q 2213 1853 2448 1751 
Q 2684 1650 2818 1456 
Q 2953 1263 2953 975 
Q 2953 694 2789 445 
Q 2625 197 2315 61 
Q 2006 -75 1616 -75 
Q 969 -75 630 194 
Q 291 463 197 991 
z
" transform="scale(0.015625)"/>
      </defs>
      <use xlink:href="#ArialMT-54"/>
      <use xlink:href="#ArialMT-6f" transform="translate(49.958984 0)"/>
      <use xlink:href="#ArialMT-74" transform="translate(105.574219 0)"/>
      <use xlink:href="#ArialMT-61" transform="translate(133.357422 0)"/>
      <use xlink:href="#ArialMT-6c" transform="translate(188.972656 0)"/>
      <use xlink:href="#ArialMT-43" transform="translate(211.189453 0)"/>
      <use xlink:href="#ArialMT-68" transform="translate(283.40625 0)"/>
      <use xlink:href="#ArialMT-61" transform="translate(339.021484 0)"/>
      <use xlink:href="#ArialMT-72" transform="translate(394.636719 0)"/>
      <use xlink:href="#ArialMT-67" transform="translate(427.9375 0)"/>
      <use xlink:href="#ArialMT-65" transform="translate(483.552734 0)"/>
      <use xlink:href="#ArialMT-73" transform="translate(539.167969 0)"/>
     </g>
    </g>
   </g>
   <g id="matplotlib.axis_2">
    <g id="ytick_1">
     <g id="line2d_6">
      <path d="M 44.028125 357.4875 
L 602.028125 357.4875 
" clip-path="url(#p79ebdaca90)" style="fill: none; stroke: #cccccc; stroke-width: 0.8; stroke-linecap: round"/>
     </g>
     <g id="text_7">
      <!-- 0 -->
      <g style="fill: #262626" transform="translate(31.467188 361.066406) scale(0.1 -0.1)">
       <use xlink:href="#ArialMT-30"/>
      </g>
     </g>
    </g>
    <g id="ytick_2">
     <g id="line2d_7">
      <path d="M 44.028125 289.722794 
L 602.028125 289.722794 
" clip-path="url(#p79ebdaca90)" style="fill: none; stroke: #cccccc; stroke-width: 0.8; stroke-linecap: round"/>
     </g>
     <g id="text_8">
      <!-- 200 -->
      <g style="fill: #262626" transform="translate(20.345313 293.3017) scale(0.1 -0.1)">
       <use xlink:href="#ArialMT-32"/>
       <use xlink:href="#ArialMT-30" transform="translate(55.615234 0)"/>
       <use xlink:href="#ArialMT-30" transform="translate(111.230469 0)"/>
      </g>
     </g>
    </g>
    <g id="ytick_3">
     <g id="line2d_8">
      <path d="M 44.028125 221.958088 
L 602.028125 221.958088 
" clip-path="url(#p79ebdaca90)" style="fill: none; stroke: #cccccc; stroke-width: 0.8; stroke-linecap: round"/>
     </g>
     <g id="text_9">
      <!-- 400 -->
      <g style="fill: #262626" transform="translate(20.345313 225.536994) scale(0.1 -0.1)">
       <use xlink:href="#ArialMT-34"/>
       <use xlink:href="#ArialMT-30" transform="translate(55.615234 0)"/>
       <use xlink:href="#ArialMT-30" transform="translate(111.230469 0)"/>
      </g>
     </g>
    </g>
    <g id="ytick_4">
     <g id="line2d_9">
      <path d="M 44.028125 154.193382 
L 602.028125 154.193382 
" clip-path="url(#p79ebdaca90)" style="fill: none; stroke: #cccccc; stroke-width: 0.8; stroke-linecap: round"/>
     </g>
     <g id="text_10">
      <!-- 600 -->
      <g style="fill: #262626" transform="translate(20.345313 157.772289) scale(0.1 -0.1)">
       <use xlink:href="#ArialMT-36"/>
       <use xlink:href="#ArialMT-30" transform="translate(55.615234 0)"/>
       <use xlink:href="#ArialMT-30" transform="translate(111.230469 0)"/>
      </g>
     </g>
    </g>
    <g id="ytick_5">
     <g id="line2d_10">
      <path d="M 44.028125 86.428676 
L 602.028125 86.428676 
" clip-path="url(#p79ebdaca90)" style="fill: none; stroke: #cccccc; stroke-width: 0.8; stroke-linecap: round"/>
     </g>
     <g id="text_11">
      <!-- 800 -->
      <g style="fill: #262626" transform="translate(20.345313 90.007583) scale(0.1 -0.1)">
       <use xlink:href="#ArialMT-38"/>
       <use xlink:href="#ArialMT-30" transform="translate(55.615234 0)"/>
       <use xlink:href="#ArialMT-30" transform="translate(111.230469 0)"/>
      </g>
     </g>
    </g>
    <g id="text_12">
     <!-- Count -->
     <g style="fill: #262626" transform="translate(14.357813 204.508906) rotate(-90) scale(0.1 -0.1)">
      <defs>
       <path id="ArialMT-75" d="M 2597 0 
L 2597 488 
Q 2209 -75 1544 -75 
Q 1250 -75 995 37 
Q 741 150 617 320 
Q 494 491 444 738 
Q 409 903 409 1263 
L 409 3319 
L 972 3319 
L 972 1478 
Q 972 1038 1006 884 
Q 1059 663 1231 536 
Q 1403 409 1656 409 
Q 1909 409 2131 539 
Q 2353 669 2445 892 
Q 2538 1116 2538 1541 
L 2538 3319 
L 3100 3319 
L 3100 0 
L 2597 0 
z
" transform="scale(0.015625)"/>
       <path id="ArialMT-6e" d="M 422 0 
L 422 3319 
L 928 3319 
L 928 2847 
Q 1294 3394 1984 3394 
Q 2284 3394 2536 3286 
Q 2788 3178 2913 3003 
Q 3038 2828 3088 2588 
Q 3119 2431 3119 2041 
L 3119 0 
L 2556 0 
L 2556 2019 
Q 2556 2363 2490 2533 
Q 2425 2703 2258 2804 
Q 2091 2906 1866 2906 
Q 1506 2906 1245 2678 
Q 984 2450 984 1813 
L 984 0 
L 422 0 
z
" transform="scale(0.015625)"/>
      </defs>
      <use xlink:href="#ArialMT-43"/>
      <use xlink:href="#ArialMT-6f" transform="translate(72.216797 0)"/>
      <use xlink:href="#ArialMT-75" transform="translate(127.832031 0)"/>
      <use xlink:href="#ArialMT-6e" transform="translate(183.447266 0)"/>
      <use xlink:href="#ArialMT-74" transform="translate(239.0625 0)"/>
     </g>
    </g>
   </g>
   <g id="patch_3">
    <path d="M 69.391761 357.4875 
L 89.68267 357.4875 
L 89.68267 105.741618 
L 69.391761 105.741618 
z
" clip-path="url(#p79ebdaca90)" style="fill: #f97316; fill-opacity: 0.5; stroke: #ffffff; stroke-linejoin: miter"/>
   </g>
   <g id="patch_4">
    <path d="M 89.68267 357.4875 
L 109.97358 357.4875 
L 109.97358 291.755735 
L 89.68267 291.755735 
z
" clip-path="url(#p79ebdaca90)" style="fill: #f97316; fill-opacity: 0.5; stroke: #ffffff; stroke-linejoin: miter"/>
   </g>
   <g id="patch_5">
    <path d="M 109.97358 357.4875 
L 130.264489 357.4875 
L 130.264489 305.308676 
L 109.97358 305.308676 
z
" clip-path="url(#p79ebdaca90)" style="fill: #f97316; fill-opacity: 0.5; stroke: #ffffff; stroke-linejoin: miter"/>
   </g>
   <g id="patch_6">
    <path d="M 130.264489 357.4875 
L 150.555398 357.4875 
L 150.555398 316.828676 
L 130.264489 316.828676 
z
" clip-path="url(#p79ebdaca90)" style="fill: #f97316; fill-opacity: 0.5; stroke: #ffffff; stroke-linejoin: miter"/>
   </g>
   <g id="patch_7">
    <path d="M 150.555398 357.4875 
L 170.846307 357.4875 
L 170.846307 329.026324 
L 150.555398 329.026324 
z
" clip-path="url(#p79ebdaca90)" style="fill: #f97316; fill-opacity: 0.5; stroke: #ffffff; stroke-linejoin: miter"/>
   </g>
   <g id="patch_8">
    <path d="M 170.846307 357.4875 
L 191.137216 357.4875 
L 191.137216 337.835735 
L 170.846307 337.835735 
z
" clip-path="url(#p79ebdaca90)" style="fill: #f97316; fill-opacity: 0.5; stroke: #ffffff; stroke-linejoin: miter"/>
   </g>
   <g id="patch_9">
    <path d="M 191.137216 357.4875 
L 211.428125 357.4875 
L 211.428125 332.414559 
L 191.137216 332.414559 
z
" clip-path="url(#p79ebdaca90)" style="fill: #f97316; fill-opacity: 0.5; stroke: #ffffff; stroke-linejoin: miter"/>
   </g>
   <g id="patch_10">
    <path d="M 211.428125 357.4875 
L 231.719034 357.4875 
L 231.719034 336.480441 
L 211.428125 336.480441 
z
" clip-path="url(#p79ebdaca90)" style="fill: #f97316; fill-opacity: 0.5; stroke: #ffffff; stroke-linejoin: miter"/>
   </g>
   <g id="patch_11">
    <path d="M 231.719034 357.4875 
L 252.009943 357.4875 
L 252.009943 338.852206 
L 231.719034 338.852206 
z
" clip-path="url(#p79ebdaca90)" style="fill: #f97316; fill-opacity: 0.5; stroke: #ffffff; stroke-linejoin: miter"/>
   </g>
   <g id="patch_12">
    <path d="M 252.009943 357.4875 
L 272.300852 357.4875 
L 272.300852 343.256912 
L 252.009943 343.256912 
z
" clip-path="url(#p79ebdaca90)" style="fill: #f97316; fill-opacity: 0.5; stroke: #ffffff; stroke-linejoin: miter"/>
   </g>
   <g id="patch_13">
    <path d="M 272.300852 357.4875 
L 292.591761 357.4875 
L 292.591761 347.322794 
L 272.300852 347.322794 
z
" clip-path="url(#p79ebdaca90)" style="fill: #f97316; fill-opacity: 0.5; stroke: #ffffff; stroke-linejoin: miter"/>
   </g>
   <g id="patch_14">
    <path d="M 292.591761 357.4875 
L 312.88267 357.4875 
L 312.88267 347.661618 
L 292.591761 347.661618 
z
" clip-path="url(#p79ebdaca90)" style="fill: #f97316; fill-opacity: 0.5; stroke: #ffffff; stroke-linejoin: miter"/>
   </g>
   <g id="patch_15">
    <path d="M 312.88267 357.4875 
L 333.17358 357.4875 
L 333.17358 347.322794 
L 312.88267 347.322794 
z
" clip-path="url(#p79ebdaca90)" style="fill: #f97316; fill-opacity: 0.5; stroke: #ffffff; stroke-linejoin: miter"/>
   </g>
   <g id="patch_16">
    <path d="M 333.17358 357.4875 
L 353.464489 357.4875 
L 353.464489 347.322794 
L 333.17358 347.322794 
z
" clip-path="url(#p79ebdaca90)" style="fill: #f97316; fill-opacity: 0.5; stroke: #ffffff; stroke-linejoin: miter"/>
   </g>
   <g id="patch_17">
    <path d="M 353.464489 357.4875 
L 373.755398 357.4875 
L 373.755398 349.694559 
L 353.464489 349.694559 
z
" clip-path="url(#p79ebdaca90)" style="fill: #f97316; fill-opacity: 0.5; stroke: #ffffff; stroke-linejoin: miter"/>
   </g>
   <g id="patch_18">
    <path d="M 373.755398 357.4875 
L 394.046307 357.4875 
L 394.046307 349.016912 
L 373.755398 349.016912 
z
" clip-path="url(#p79ebdaca90)" style="fill: #f97316; fill-opacity: 0.5; stroke: #ffffff; stroke-linejoin: miter"/>
   </g>
   <g id="patch_19">
    <path d="M 394.046307 357.4875 
L 414.337216 357.4875 
L 414.337216 349.694559 
L 394.046307 349.694559 
z
" clip-path="url(#p79ebdaca90)" style="fill: #f97316; fill-opacity: 0.5; stroke: #ffffff; stroke-linejoin: miter"/>
   </g>
   <g id="patch_20">
    <path d="M 414.337216 357.4875 
L 434.628125 357.4875 
L 434.628125 350.033382 
L 414.337216 350.033382 
z
" clip-path="url(#p79ebdaca90)" style="fill: #f97316; fill-opacity: 0.5; stroke: #ffffff; stroke-linejoin: miter"/>
   </g>
   <g id="patch_21">
    <path d="M 434.628125 357.4875 
L 454.919034 357.4875 
L 454.919034 350.711029 
L 434.628125 350.711029 
z
" clip-path="url(#p79ebdaca90)" style="fill: #f97316; fill-opacity: 0.5; stroke: #ffffff; stroke-linejoin: miter"/>
   </g>
   <g id="patch_22">
    <path d="M 454.919034 357.4875 
L 475.209943 357.4875 
L 475.209943 352.743971 
L 454.919034 352.743971 
z
" clip-path="url(#p79ebdaca90)" style="fill: #f97316; fill-opacity: 0.5; stroke: #ffffff; stroke-linejoin: miter"/>
   </g>
   <g id="patch_23">
    <path d="M 475.209943 357.4875 
L 495.500852 357.4875 
L 495.500852 353.082794 
L 475.209943 353.082794 
z
" clip-path="url(#p79ebdaca90)" style="fill: #f97316; fill-opacity: 0.5; stroke: #ffffff; stroke-linejoin: miter"/>
   </g>
   <g id="patch_24">
    <path d="M 495.500852 357.4875 
L 515.791761 357.4875 
L 515.791761 353.421618 
L 495.500852 353.421618 
z
" clip-path="url(#p79ebdaca90)" style="fill: #f97316; fill-opacity: 0.5; stroke: #ffffff; stroke-linejoin: miter"/>
   </g>
   <g id="patch_25">
    <path d="M 515.791761 357.4875 
L 536.08267 357.4875 
L 536.08267 354.438088 
L 515.791761 354.438088 
z
" clip-path="url(#p79ebdaca90)" style="fill: #f97316; fill-opacity: 0.5; stroke: #ffffff; stroke-linejoin: miter"/>
   </g>
   <g id="patch_26">
    <path d="M 536.08267 357.4875 
L 556.37358 357.4875 
L 556.37358 356.809853 
L 536.08267 356.809853 
z
" clip-path="url(#p79ebdaca90)" style="fill: #f97316; fill-opacity: 0.5; stroke: #ffffff; stroke-linejoin: miter"/>
   </g>
   <g id="patch_27">
    <path d="M 556.37358 357.4875 
L 576.664489 357.4875 
L 576.664489 357.148676 
L 556.37358 357.148676 
z
" clip-path="url(#p79ebdaca90)" style="fill: #f97316; fill-opacity: 0.5; stroke: #ffffff; stroke-linejoin: miter"/>
   </g>
   <g id="patch_28">
    <path d="M 69.391761 357.4875 
L 89.68267 357.4875 
L 89.68267 40.6875 
L 69.391761 40.6875 
z
" clip-path="url(#p79ebdaca90)" style="fill: #3b82f6; fill-opacity: 0.5; stroke: #ffffff; stroke-linejoin: miter"/>
   </g>
   <g id="patch_29">
    <path d="M 89.68267 357.4875 
L 109.97358 357.4875 
L 109.97358 176.555735 
L 89.68267 176.555735 
z
" clip-path="url(#p79ebdaca90)" style="fill: #3b82f6; fill-opacity: 0.5; stroke: #ffffff; stroke-linejoin: miter"/>
   </g>
   <g id="patch_30">
    <path d="M 109.97358 357.4875 
L 130.264489 357.4875 
L 130.264489 210.776912 
L 109.97358 210.776912 
z
" clip-path="url(#p79ebdaca90)" style="fill: #3b82f6; fill-opacity: 0.5; stroke: #ffffff; stroke-linejoin: miter"/>
   </g>
   <g id="patch_31">
    <path d="M 130.264489 357.4875 
L 150.555398 357.4875 
L 150.555398 216.536912 
L 130.264489 216.536912 
z
" clip-path="url(#p79ebdaca90)" style="fill: #3b82f6; fill-opacity: 0.5; stroke: #ffffff; stroke-linejoin: miter"/>
   </g>
   <g id="patch_32">
    <path d="M 150.555398 357.4875 
L 170.846307 357.4875 
L 170.846307 247.708676 
L 150.555398 247.708676 
z
" clip-path="url(#p79ebdaca90)" style="fill: #3b82f6; fill-opacity: 0.5; stroke: #ffffff; stroke-linejoin: miter"/>
   </g>
   <g id="patch_33">
    <path d="M 170.846307 357.4875 
L 191.137216 357.4875 
L 191.137216 269.393382 
L 170.846307 269.393382 
z
" clip-path="url(#p79ebdaca90)" style="fill: #3b82f6; fill-opacity: 0.5; stroke: #ffffff; stroke-linejoin: miter"/>
   </g>
   <g id="patch_34">
    <path d="M 191.137216 357.4875 
L 211.428125 357.4875 
L 211.428125 300.226324 
L 191.137216 300.226324 
z
" clip-path="url(#p79ebdaca90)" style="fill: #3b82f6; fill-opacity: 0.5; stroke: #ffffff; stroke-linejoin: miter"/>
   </g>
   <g id="patch_35">
    <path d="M 211.428125 357.4875 
L 231.719034 357.4875 
L 231.719034 305.6475 
L 211.428125 305.6475 
z
" clip-path="url(#p79ebdaca90)" style="fill: #3b82f6; fill-opacity: 0.5; stroke: #ffffff; stroke-linejoin: miter"/>
   </g>
   <g id="patch_36">
    <path d="M 231.719034 357.4875 
L 252.009943 357.4875 
L 252.009943 305.6475 
L 231.719034 305.6475 
z
" clip-path="url(#p79ebdaca90)" style="fill: #3b82f6; fill-opacity: 0.5; stroke: #ffffff; stroke-linejoin: miter"/>
   </g>
   <g id="patch_37">
    <path d="M 252.009943 357.4875 
L 272.300852 357.4875 
L 272.300852 305.6475 
L 252.009943 305.6475 
z
" clip-path="url(#p79ebdaca90)" style="fill: #3b82f6; fill-opacity: 0.5; stroke: #ffffff; stroke-linejoin: miter"/>
   </g>
   <g id="patch_38">
    <path d="M 272.300852 357.4875 
L 292.591761 357.4875 
L 292.591761 309.035735 
L 272.300852 309.035735 
z
" clip-path="url(#p79ebdaca90)" style="fill: #3b82f6; fill-opacity: 0.5; stroke: #ffffff; stroke-linejoin: miter"/>
   </g>
   <g id="patch_39">
    <path d="M 292.591761 357.4875 
L 312.88267 357.4875 
L 312.88267 300.903971 
L 292.591761 300.903971 
z
" clip-path="url(#p79ebdaca90)" style="fill: #3b82f6; fill-opacity: 0.5; stroke: #ffffff; stroke-linejoin: miter"/>
   </g>
   <g id="patch_40">
    <path d="M 312.88267 357.4875 
L 333.17358 357.4875 
L 333.17358 311.746324 
L 312.88267 311.746324 
z
" clip-path="url(#p79ebdaca90)" style="fill: #3b82f6; fill-opacity: 0.5; stroke: #ffffff; stroke-linejoin: miter"/>
   </g>
   <g id="patch_41">
    <path d="M 333.17358 357.4875 
L 353.464489 357.4875 
L 353.464489 308.696912 
L 333.17358 308.696912 
z
" clip-path="url(#p79ebdaca90)" style="fill: #3b82f6; fill-opacity: 0.5; stroke: #ffffff; stroke-linejoin: miter"/>
   </g>
   <g id="patch_42">
    <path d="M 353.464489 357.4875 
L 373.755398 357.4875 
L 373.755398 311.746324 
L 353.464489 311.746324 
z
" clip-path="url(#p79ebdaca90)" style="fill: #3b82f6; fill-opacity: 0.5; stroke: #ffffff; stroke-linejoin: miter"/>
   </g>
   <g id="patch_43">
    <path d="M 373.755398 357.4875 
L 394.046307 357.4875 
L 394.046307 316.489853 
L 373.755398 316.489853 
z
" clip-path="url(#p79ebdaca90)" style="fill: #3b82f6; fill-opacity: 0.5; stroke: #ffffff; stroke-linejoin: miter"/>
   </g>
   <g id="patch_44">
    <path d="M 394.046307 357.4875 
L 414.337216 357.4875 
L 414.337216 309.713382 
L 394.046307 309.713382 
z
" clip-path="url(#p79ebdaca90)" style="fill: #3b82f6; fill-opacity: 0.5; stroke: #ffffff; stroke-linejoin: miter"/>
   </g>
   <g id="patch_45">
    <path d="M 414.337216 357.4875 
L 434.628125 357.4875 
L 434.628125 314.795735 
L 414.337216 314.795735 
z
" clip-path="url(#p79ebdaca90)" style="fill: #3b82f6; fill-opacity: 0.5; stroke: #ffffff; stroke-linejoin: miter"/>
   </g>
   <g id="patch_46">
    <path d="M 434.628125 357.4875 
L 454.919034 357.4875 
L 454.919034 318.522794 
L 434.628125 318.522794 
z
" clip-path="url(#p79ebdaca90)" style="fill: #3b82f6; fill-opacity: 0.5; stroke: #ffffff; stroke-linejoin: miter"/>
   </g>
   <g id="patch_47">
    <path d="M 454.919034 357.4875 
L 475.209943 357.4875 
L 475.209943 324.282794 
L 454.919034 324.282794 
z
" clip-path="url(#p79ebdaca90)" style="fill: #3b82f6; fill-opacity: 0.5; stroke: #ffffff; stroke-linejoin: miter"/>
   </g>
   <g id="patch_48">
    <path d="M 475.209943 357.4875 
L 495.500852 357.4875 
L 495.500852 327.671029 
L 475.209943 327.671029 
z
" clip-path="url(#p79ebdaca90)" style="fill: #3b82f6; fill-opacity: 0.5; stroke: #ffffff; stroke-linejoin: miter"/>
   </g>
   <g id="patch_49">
    <path d="M 495.500852 357.4875 
L 515.791761 357.4875 
L 515.791761 332.075735 
L 495.500852 332.075735 
z
" clip-path="url(#p79ebdaca90)" style="fill: #3b82f6; fill-opacity: 0.5; stroke: #ffffff; stroke-linejoin: miter"/>
   </g>
   <g id="patch_50">
    <path d="M 515.791761 357.4875 
L 536.08267 357.4875 
L 536.08267 334.4475 
L 515.791761 334.4475 
z
" clip-path="url(#p79ebdaca90)" style="fill: #3b82f6; fill-opacity: 0.5; stroke: #ffffff; stroke-linejoin: miter"/>
   </g>
   <g id="patch_51">
    <path d="M 536.08267 357.4875 
L 556.37358 357.4875 
L 556.37358 339.529853 
L 536.08267 339.529853 
z
" clip-path="url(#p79ebdaca90)" style="fill: #3b82f6; fill-opacity: 0.5; stroke: #ffffff; stroke-linejoin: miter"/>
   </g>
   <g id="patch_52">
    <path d="M 556.37358 357.4875 
L 576.664489 357.4875 
L 576.664489 349.355735 
L 556.37358 349.355735 
z
" clip-path="url(#p79ebdaca90)" style="fill: #3b82f6; fill-opacity: 0.5; stroke: #ffffff; stroke-linejoin: miter"/>
   </g>
   <g id="line2d_11">
    <path d="M 69.391761 265.713022 
L 71.940871 262.24506 
L 74.48998 259.462285 
L 77.039089 257.406012 
L 79.588198 256.09624 
L 82.137307 255.531343 
L 84.686416 255.688853 
L 87.235526 256.527255 
L 89.784635 257.988636 
L 92.333744 260.002005 
L 94.882853 262.487034 
L 97.431962 265.357967 
L 99.981072 268.527464 
L 105.07929 275.425679 
L 112.726617 286.088465 
L 117.824836 292.789797 
L 122.923054 298.888584 
L 125.472163 301.683505 
L 128.021273 304.307366 
L 130.570382 306.765165 
L 135.6686 311.216961 
L 140.766818 315.119923 
L 145.865037 318.555221 
L 150.963255 321.586631 
L 156.061474 324.255179 
L 161.159692 326.582481 
L 166.25791 328.578843 
L 171.356129 330.252631 
L 176.454347 331.618384 
L 181.552565 332.702086 
L 186.650784 333.542898 
L 191.749002 334.191398 
L 199.39633 334.929685 
L 219.789203 336.735007 
L 229.98564 337.97183 
L 240.182077 339.46204 
L 275.869605 345.004884 
L 283.516933 345.849775 
L 291.16426 346.477866 
L 298.811588 346.901456 
L 309.008024 347.227438 
L 354.89199 348.312385 
L 433.914374 350.940346 
L 469.601903 352.199095 
L 492.543886 353.053682 
L 510.38765 353.964039 
L 558.820724 356.720351 
L 571.56627 357.071121 
L 576.664489 357.163727 
L 576.664489 357.163727 
" clip-path="url(#p79ebdaca90)" style="fill: none; stroke: #f97316; stroke-width: 1.5; stroke-linecap: round"/>
   </g>
   <g id="line2d_12">
    <path d="M 69.391761 225.133471 
L 71.940871 217.48754 
L 74.48998 210.454553 
L 77.039089 204.125659 
L 79.588198 198.572509 
L 82.137307 193.845199 
L 84.686416 189.971234 
L 87.235526 186.955585 
L 89.784635 184.781751 
L 92.333744 183.413763 
L 94.882853 182.798935 
L 97.431962 182.871181 
L 99.981072 183.554687 
L 102.530181 184.76769 
L 105.07929 186.426177 
L 107.628399 188.447302 
L 110.177508 190.752379 
L 115.275727 195.934525 
L 122.923054 204.33155 
L 133.119491 215.472358 
L 150.963255 234.621455 
L 158.610583 243.282186 
L 168.807019 255.340854 
L 179.003456 267.396563 
L 184.101675 273.131676 
L 189.199893 278.513185 
L 194.298111 283.442448 
L 199.39633 287.847371 
L 201.945439 289.839031 
L 204.494548 291.686521 
L 207.043657 293.389468 
L 209.592766 294.949236 
L 212.141876 296.368755 
L 214.690985 297.652323 
L 217.240094 298.805404 
L 222.338312 300.746448 
L 227.436531 302.250671 
L 232.534749 303.382414 
L 237.632967 304.206536 
L 242.731186 304.784671 
L 247.829404 305.172728 
L 255.476732 305.503076 
L 265.673168 305.672569 
L 286.066042 305.89186 
L 296.262479 306.249597 
L 306.458915 306.852444 
L 326.851789 308.413387 
L 349.793771 310.256239 
L 375.284863 312.49942 
L 385.4813 313.01968 
L 405.874173 313.845492 
L 413.521501 314.483769 
L 421.168829 315.415269 
L 428.816156 316.60824 
L 439.012593 318.472706 
L 456.856357 322.043093 
L 505.289432 331.866511 
L 520.584087 334.904624 
L 528.231414 336.601905 
L 535.878742 338.514539 
L 543.526069 340.674859 
L 551.173397 343.05702 
L 574.115379 350.438002 
L 576.664489 351.162131 
L 576.664489 351.162131 
" clip-path="url(#p79ebdaca90)" style="fill: none; stroke: #3b82f6; stroke-width: 1.5; stroke-linecap: round"/>
   </g>
   <g id="patch_53">
    <path d="M 44.028125 357.4875 
L 44.028125 24.8475 
" style="fill: none; stroke: #cccccc; stroke-width: 0.8; stroke-linejoin: miter; stroke-linecap: square"/>
   </g>
   <g id="patch_54">
    <path d="M 602.028125 357.4875 
L 602.028125 24.8475 
" style="fill: none; stroke: #cccccc; stroke-width: 0.8; stroke-linejoin: miter; stroke-linecap: square"/>
   </g>
   <g id="patch_55">
    <path d="M 44.028125 357.4875 
L 602.028125 357.4875 
" style="fill: none; stroke: #cccccc; stroke-width: 0.8; stroke-linejoin: miter; stroke-linecap: square"/>
   </g>
   <g id="patch_56">
    <path d="M 44.028125 24.8475 
L 602.028125 24.8475 
" style="fill: none; stroke: #cccccc; stroke-width: 0.8; stroke-linejoin: miter; stroke-linecap: square"/>
   </g>
   <g id="text_13">
    <!-- Distribution of Total Charges by Churn Status -->
    <g style="fill: #262626" transform="translate(163.103125 18.8475) scale(0.16 -0.16)">
     <defs>
      <path id="ArialMT-44" d="M 494 0 
L 494 4581 
L 2072 4581 
Q 2606 4581 2888 4516 
Q 3281 4425 3559 4188 
Q 3922 3881 4101 3404 
Q 4281 2928 4281 2316 
Q 4281 1794 4159 1391 
Q 4038 988 3847 723 
Q 3656 459 3429 307 
Q 3203 156 2883 78 
Q 2563 0 2147 0 
L 494 0 
z
M 1100 541 
L 2078 541 
Q 2531 541 2789 625 
Q 3047 709 3200 863 
Q 3416 1078 3536 1442 
Q 3656 1806 3656 2325 
Q 3656 3044 3420 3430 
Q 3184 3816 2847 3947 
Q 2603 4041 2063 4041 
L 1100 4041 
L 1100 541 
z
" transform="scale(0.015625)"/>
      <path id="ArialMT-69" d="M 425 3934 
L 425 4581 
L 988 4581 
L 988 3934 
L 425 3934 
z
M 425 0 
L 425 3319 
L 988 3319 
L 988 0 
L 425 0 
z
" transform="scale(0.015625)"/>
      <path id="ArialMT-62" d="M 941 0 
L 419 0 
L 419 4581 
L 981 4581 
L 981 2947 
Q 1338 3394 1891 3394 
Q 2197 3394 2470 3270 
Q 2744 3147 2920 2923 
Q 3097 2700 3197 2384 
Q 3297 2069 3297 1709 
Q 3297 856 2875 390 
Q 2453 -75 1863 -75 
Q 1275 -75 941 416 
L 941 0 
z
M 934 1684 
Q 934 1088 1097 822 
Q 1363 388 1816 388 
Q 2184 388 2453 708 
Q 2722 1028 2722 1663 
Q 2722 2313 2464 2622 
Q 2206 2931 1841 2931 
Q 1472 2931 1203 2611 
Q 934 2291 934 1684 
z
" transform="scale(0.015625)"/>
      <path id="ArialMT-20" transform="scale(0.015625)"/>
      <path id="ArialMT-66" d="M 556 0 
L 556 2881 
L 59 2881 
L 59 3319 
L 556 3319 
L 556 3672 
Q 556 4006 616 4169 
Q 697 4388 901 4523 
Q 1106 4659 1475 4659 
Q 1713 4659 2000 4603 
L 1916 4113 
Q 1741 4144 1584 4144 
Q 1328 4144 1222 4034 
Q 1116 3925 1116 3625 
L 1116 3319 
L 1763 3319 
L 1763 2881 
L 1116 2881 
L 1116 0 
L 556 0 
z
" transform="scale(0.015625)"/>
      <path id="ArialMT-79" d="M 397 -1278 
L 334 -750 
Q 519 -800 656 -800 
Q 844 -800 956 -737 
Q 1069 -675 1141 -563 
Q 1194 -478 1313 -144 
Q 1328 -97 1363 -6 
L 103 3319 
L 709 3319 
L 1400 1397 
Q 1534 1031 1641 628 
Q 1738 1016 1872 1384 
L 2581 3319 
L 3144 3319 
L 1881 -56 
Q 1678 -603 1566 -809 
Q 1416 -1088 1222 -1217 
Q 1028 -1347 759 -1347 
Q 597 -1347 397 -1278 
z
" transform="scale(0.015625)"/>
      <path id="ArialMT-53" d="M 288 1472 
L 859 1522 
Q 900 1178 1048 958 
Q 1197 738 1509 602 
Q 1822 466 2213 466 
Q 2559 466 2825 569 
Q 3091 672 3220 851 
Q 3350 1031 3350 1244 
Q 3350 1459 3225 1620 
Q 3100 1781 2813 1891 
Q 2628 1963 1997 2114 
Q 1366 2266 1113 2400 
Q 784 2572 623 2826 
Q 463 3081 463 3397 
Q 463 3744 659 4045 
Q 856 4347 1234 4503 
Q 1613 4659 2075 4659 
Q 2584 4659 2973 4495 
Q 3363 4331 3572 4012 
Q 3781 3694 3797 3291 
L 3216 3247 
Q 3169 3681 2898 3903 
Q 2628 4125 2100 4125 
Q 1550 4125 1298 3923 
Q 1047 3722 1047 3438 
Q 1047 3191 1225 3031 
Q 1400 2872 2139 2705 
Q 2878 2538 3153 2413 
Q 3553 2228 3743 1945 
Q 3934 1663 3934 1294 
Q 3934 928 3725 604 
Q 3516 281 3123 101 
Q 2731 -78 2241 -78 
Q 1619 -78 1198 103 
Q 778 284 539 648 
Q 300 1013 288 1472 
z
" transform="scale(0.015625)"/>
     </defs>
     <use xlink:href="#ArialMT-44"/>
     <use xlink:href="#ArialMT-69" transform="translate(72.216797 0)"/>
     <use xlink:href="#ArialMT-73" transform="translate(94.433594 0)"/>
     <use xlink:href="#ArialMT-74" transform="translate(144.433594 0)"/>
     <use xlink:href="#ArialMT-72" transform="translate(172.216797 0)"/>
     <use xlink:href="#ArialMT-69" transform="translate(205.517578 0)"/>
     <use xlink:href="#ArialMT-62" transform="translate(227.734375 0)"/>
     <use xlink:href="#ArialMT-75" transform="translate(283.349609 0)"/>
     <use xlink:href="#ArialMT-74" transform="translate(338.964844 0)"/>
     <use xlink:href="#ArialMT-69" transform="translate(366.748047 0)"/>
     <use xlink:href="#ArialMT-6f" transform="translate(388.964844 0)"/>
     <use xlink:href="#ArialMT-6e" transform="translate(444.580078 0)"/>
     <use xlink:href="#ArialMT-20" transform="translate(500.195312 0)"/>
     <use xlink:href="#ArialMT-6f" transform="translate(527.978516 0)"/>
     <use xlink:href="#ArialMT-66" transform="translate(583.59375 0)"/>
     <use xlink:href="#ArialMT-20" transform="translate(611.376953 0)"/>
     <use xlink:href="#ArialMT-54" transform="translate(637.410156 0)"/>
     <use xlink:href="#ArialMT-6f" transform="translate(687.369141 0)"/>
     <use xlink:href="#ArialMT-74" transform="translate(742.984375 0)"/>
     <use xlink:href="#ArialMT-61" transform="translate(770.767578 0)"/>
     <use xlink:href="#ArialMT-6c" transform="translate(826.382812 0)"/>
     <use xlink:href="#ArialMT-20" transform="translate(848.599609 0)"/>
     <use xlink:href="#ArialMT-43" transform="translate(876.382812 0)"/>
     <use xlink:href="#ArialMT-68" transform="translate(948.599609 0)"/>
     <use xlink:href="#ArialMT-61" transform="translate(1004.214844 0)"/>
     <use xlink:href="#ArialMT-72" transform="translate(1059.830078 0)"/>
     <use xlink:href="#ArialMT-67" transform="translate(1093.130859 0)"/>
     <use xlink:href="#ArialMT-65" transform="translate(1148.746094 0)"/>
     <use xlink:href="#ArialMT-73" transform="translate(1204.361328 0)"/>
     <use xlink:href="#ArialMT-20" transform="translate(1254.361328 0)"/>
     <use xlink:href="#ArialMT-62" transform="translate(1282.144531 0)"/>
     <use xlink:href="#ArialMT-79" transform="translate(1337.759766 0)"/>
     <use xlink:href="#ArialMT-20" transform="translate(1387.759766 0)"/>
     <use xlink:href="#ArialMT-43" transform="translate(1415.542969 0)"/>
     <use xlink:href="#ArialMT-68" transform="translate(1487.759766 0)"/>
     <use xlink:href="#ArialMT-75" transform="translate(1543.375 0)"/>
     <use xlink:href="#ArialMT-72" transform="translate(1598.990234 0)"/>
     <use xlink:href="#ArialMT-6e" transform="translate(1632.291016 0)"/>
     <use xlink:href="#ArialMT-20" transform="translate(1687.90625 0)"/>
     <use xlink:href="#ArialMT-53" transform="translate(1715.689453 0)"/>
     <use xlink:href="#ArialMT-74" transform="translate(1782.388672 0)"/>
     <use xlink:href="#ArialMT-61" transform="translate(1810.171875 0)"/>
     <use xlink:href="#ArialMT-74" transform="translate(1865.787109 0)"/>
     <use xlink:href="#ArialMT-75" transform="translate(1893.570312 0)"/>
     <use xlink:href="#ArialMT-73" transform="translate(1949.185547 0)"/>
    </g>
   </g>
   <g id="legend_1">
    <g id="patch_57">
     <path d="M 524.671875 75.5225 
L 595.028125 75.5225 
Q 597.028125 75.5225 597.028125 73.5225 
L 597.028125 31.8475 
Q 597.028125 29.8475 595.028125 29.8475 
L 524.671875 29.8475 
Q 522.671875 29.8475 522.671875 31.8475 
L 522.671875 73.5225 
Q 522.671875 75.5225 524.671875 75.5225 
z
" style="fill: #ffffff; opacity: 0.8; stroke: #cccccc; stroke-linejoin: miter"/>
    </g>
    <g id="text_14">
     <!-- Churn Status -->
     <g style="fill: #262626" transform="translate(530.669531 41.005312) scale(0.1 -0.1)">
      <use xlink:href="#ArialMT-43"/>
      <use xlink:href="#ArialMT-68" transform="translate(72.216797 0)"/>
      <use xlink:href="#ArialMT-75" transform="translate(127.832031 0)"/>
      <use xlink:href="#ArialMT-72" transform="translate(183.447266 0)"/>
      <use xlink:href="#ArialMT-6e" transform="translate(216.748047 0)"/>
      <use xlink:href="#ArialMT-20" transform="translate(272.363281 0)"/>
      <use xlink:href="#ArialMT-53" transform="translate(300.146484 0)"/>
      <use xlink:href="#ArialMT-74" transform="translate(366.845703 0)"/>
      <use xlink:href="#ArialMT-61" transform="translate(394.628906 0)"/>
      <use xlink:href="#ArialMT-74" transform="translate(450.244141 0)"/>
      <use xlink:href="#ArialMT-75" transform="translate(478.027344 0)"/>
      <use xlink:href="#ArialMT-73" transform="translate(533.642578 0)"/>
     </g>
    </g>
    <g id="patch_58">
     <path d="M 526.671875 55.2725 
L 546.671875 55.2725 
L 546.671875 48.2725 
L 526.671875 48.2725 
z
" style="fill: #3b82f6; fill-opacity: 0.5; stroke: #ffffff; stroke-linejoin: miter"/>
    </g>
    <g id="text_15">
     <!-- Stayed -->
     <g style="fill: #262626" transform="translate(554.671875 55.2725) scale(0.1 -0.1)">
      <defs>
       <path id="ArialMT-64" d="M 2575 0 
L 2575 419 
Q 2259 -75 1647 -75 
Q 1250 -75 917 144 
Q 584 363 401 755 
Q 219 1147 219 1656 
Q 219 2153 384 2558 
Q 550 2963 881 3178 
Q 1213 3394 1622 3394 
Q 1922 3394 2156 3267 
Q 2391 3141 2538 2938 
L 2538 4581 
L 3097 4581 
L 3097 0 
L 2575 0 
z
M 797 1656 
Q 797 1019 1065 703 
Q 1334 388 1700 388 
Q 2069 388 2326 689 
Q 2584 991 2584 1609 
Q 2584 2291 2321 2609 
Q 2059 2928 1675 2928 
Q 1300 2928 1048 2622 
Q 797 2316 797 1656 
z
" transform="scale(0.015625)"/>
      </defs>
      <use xlink:href="#ArialMT-53"/>
      <use xlink:href="#ArialMT-74" transform="translate(66.699219 0)"/>
      <use xlink:href="#ArialMT-61" transform="translate(94.482422 0)"/>
      <use xlink:href="#ArialMT-79" transform="translate(150.097656 0)"/>
      <use xlink:href="#ArialMT-65" transform="translate(200.097656 0)"/>
      <use xlink:href="#ArialMT-64" transform="translate(255.712891 0)"/>
     </g>
    </g>
    <g id="patch_59">
     <path d="M 526.671875 69.535 
L 546.671875 69.535 
L 546.671875 62.535 
L 526.671875 62.535 
z
" style="fill: #f97316; fill-opacity: 0.5; stroke: #ffffff; stroke-linejoin: miter"/>
    </g>
    <g id="text_16">
     <!-- Churned -->
     <g style="fill: #262626" transform="translate(554.671875 69.535) scale(0.1 -0.1)">
      <use xlink:href="#ArialMT-43"/>
      <use xlink:href="#ArialMT-68" transform="translate(72.216797 0)"/>
      <use xlink:href="#ArialMT-75" transform="translate(127.832031 0)"/>
      <use xlink:href="#ArialMT-72" transform="translate(183.447266 0)"/>
      <use xlink:href="#ArialMT-6e" transform="translate(216.748047 0)"/>
      <use xlink:href="#ArialMT-65" transform="translate(272.363281 0)"/>
      <use xlink:href="#ArialMT-64" transform="translate(327.978516 0)"/>
     </g>
    </g>
   </g>
  </g>
 </g>
 <defs>
  <clipPath id="p79ebdaca90">
   <rect x="44.028125" y="24.8475" width="558" height="332.64"/>
  </clipPath>
 </defs>
</svg>
